<svg width="576" height="170" viewBox="0 0 576 170" fill="none" xmlns="http://www.w3.org/2000/svg">
<g filter="url(#filter0_d_1_812)">
<path fill-rule="evenodd" clip-rule="evenodd" d="M11.8 69.36C16.21 63.51 21.06 58.06 26.34 53.01C28.1 51.33 30.23 49.39 32.71 47.18C35.19 44.98 37.82 43.09 40.58 41.53C43.34 39.97 46.17 38.97 49.05 38.52C51.94 38.08 54.7 38.7 57.34 40.38C59.5 41.82 60.95 43.55 61.67 45.55C62.39 47.55 62.67 49.68 62.51 51.92C62.35 54.16 61.87 56.3899 61.07 58.59C60.27 60.79 59.43 62.82 58.55 64.66C56.31 69.31 53.82 73.6599 51.1 77.6999C48.37 81.7499 45.93 85.93 43.77 90.26C45.85 87.62 47.74 85.19 49.42 82.99C51.1 80.79 52.69 78.74 54.17 76.86C55.65 74.98 57.06 73.2099 58.38 71.5699C59.7 69.9299 61.04 68.3099 62.41 66.6999C65.45 62.7699 68.5 59.1099 71.54 55.6999C74.59 52.2999 77.67 49.33 80.8 46.8C83.58 44.55 86.41 42.76 89.29 41.37C82.74 37.62 76.08 33.8099 69.2 29.84C57.04 22.8899 45.58 16.18 36.32 11.22C26.54 6.59996 15.79 -0.800049 8.99001 5.83995C2.83001 15.35 4.63 29.46 3.94 41.01C3.89 52.96 3.87 67.1699 3.87 81.1999C6.3 77.1099 8.93 73.1499 11.8 69.34V69.36Z" fill="url(#paint0_linear_1_812)"/>
<path fill-rule="evenodd" clip-rule="evenodd" d="M74.06 123.46C70.46 123.06 67.53 121.76 65.29 119.55C63.05 117.35 61.78 114.38 61.5 110.65C61.22 106.92 62 102.48 63.84 97.31C65.68 92.14 68.89 86.39 73.46 80.06C74.74 78.22 76.18 76.17 77.79 73.93C79.39 71.69 80.87 69.68 82.24 67.92C83.76 65.84 84.81 64.25 85.37 63.17C85.93 62.09 86.07 61.4299 85.79 61.1899C85.51 60.9499 84.85 61.15 83.81 61.79C82.77 62.43 81.49 63.43 79.96 64.79C77.24 67.12 74.57 69.7 71.97 72.54C69.36 75.39 66.84 78.31 64.4 81.31C61.96 84.31 59.57 87.3199 57.25 90.3299C54.93 93.3299 52.68 96.16 50.52 98.8C48.44 101.37 46.31 104.15 44.15 107.15C41.99 110.15 39.54 112.62 36.82 114.54C35.14 115.74 33.39 116.3 31.59 116.22C29.79 116.14 28.08 115.46 26.48 114.18C25.04 112.98 24 111.62 23.35 110.09C22.71 108.57 22.37 106.95 22.33 105.22C22.29 103.5 22.47 101.78 22.87 100.05C23.27 98.33 23.75 96.67 24.31 95.06C25.67 91.13 27.56 87.03 29.96 82.74C32.36 78.45 34.73 74.55 37.05 71.02C38.41 68.94 39.67 66.8699 40.84 64.8299C42 62.7899 42.7 61.2799 42.94 60.3199C43.18 59.3599 42.8 59.22 41.8 59.9C40.8 60.58 38.81 62.53 35.85 65.73C30.48 71.58 25.39 77.93 20.58 84.78C15.77 91.63 11.64 98.46 8.2 105.27C7.32 106.95 6.42 108.9 5.5 111.1C4.58 113.31 4.2 115.41 4.36 117.41C4.4 118.17 4.31 118.87 4.11 119.5C4.37 130.21 3.43 142.77 9.5 150.79C16.87 156.56 27.28 149.14 37.87 144.06C48.03 138.53 60.71 131.11 73.86 123.6C73.96 123.54 74.06 123.49 74.15 123.43C74.12 123.43 74.1 123.43 74.07 123.43L74.06 123.46Z" fill="url(#paint1_linear_1_812)"/>
<path fill-rule="evenodd" clip-rule="evenodd" d="M118.54 58.35C115.6 56.6 112.57 54.8399 109.55 53.0699C109.46 53.4499 109.4 53.83 109.29 54.21C108.73 56.05 108.01 57.86 107.13 59.62C106.25 61.38 105.29 63.11 104.25 64.79C103.21 66.47 102.25 68.08 101.36 69.6C100.96 70.16 100 71.6001 98.47 73.9301C96.95 76.2501 95.18 78.98 93.18 82.1C91.18 85.23 89.11 88.49 86.99 91.9C84.87 95.31 83.04 98.41 81.52 101.22C80.16 103.7 79.37 105.47 79.18 106.51C78.98 107.55 79.16 108.09 79.72 108.13C80.28 108.17 81.1 107.83 82.18 107.11C83.26 106.39 84.44 105.53 85.73 104.53C87.01 103.53 88.23 102.49 89.4 101.4C90.56 100.32 91.5 99.4599 92.22 98.8199C94.3 96.8999 96.23 94.8901 97.99 92.8101C99.75 90.7301 101.64 88.6801 103.64 86.6801C104.6 85.8001 105.46 85.36 106.22 85.36C106.98 85.36 107.56 85.6799 107.96 86.3199C108.36 86.9599 108.5 87.86 108.38 89.02C108.26 90.18 107.76 91.4801 106.88 92.9301C105.68 94.8501 104.4 96.98 103.03 99.3C101.67 101.62 100.21 103.97 98.64 106.33C97.43 108.16 96.13 109.91 94.78 111.61C101.97 107.48 108.82 103.54 114.85 100C130.32 90.86 139.98 84.3699 139.96 78.1899V77.97C139.96 72.29 131.89 66.39 118.54 58.35Z" fill="url(#paint2_linear_1_812)"/>
</g>
<g filter="url(#filter1_d_1_812)">
<path d="M239.79 90.58V50.11L222.34 76.59H221.99L204.72 50.38V90.59H191.35V28.6H206.05L222.34 54.8101L238.64 28.6H253.34V90.59H239.79V90.58Z" fill="#040000"/>
<path d="M285.93 90.58V28.59H332.69V40.72H299.48V53.3H328.71V65.4301H299.48V78.45H333.13V90.58H285.93Z" fill="#040000"/>
<path d="M362.98 90.58V28.59H376.62V78.1801H407.53V90.58H362.98Z" fill="#040000"/>
<path d="M435.51 90.58V28.59H482.27V40.72H449.06V53.3H478.29V65.4301H449.06V78.45H482.71V90.58H435.51Z" fill="#040000"/>
<path d="M534.6 91.47C525.21 91.47 515.74 88.19 508.3 81.55L516.36 71.9C521.94 76.51 527.78 79.4301 534.87 79.4301C540.45 79.4301 543.81 77.22 543.81 73.59V73.41C543.81 69.96 541.69 68.18 531.32 65.53C518.83 62.34 510.77 58.89 510.77 46.58V46.4C510.77 35.15 519.8 27.71 532.47 27.71C541.5 27.71 549.21 30.54 555.5 35.59L548.42 45.86C542.93 42.05 537.53 39.75 532.3 39.75C527.07 39.75 524.33 42.14 524.33 45.15V45.33C524.33 49.4 526.99 50.73 537.7 53.48C550.28 56.76 557.36 61.27 557.36 72.08V72.26C557.36 84.57 547.97 91.48 534.6 91.48V91.47Z" fill="#040000"/>
</g>
<g filter="url(#filter2_d_1_812)">
<path d="M186.85 115.47H207.61V120.03H199.73V142.75H194.53V120.03H186.85V115.47Z" fill="#2C3F97"/>
<path d="M231.61 115.47H236.81V142.75H231.61V130.71H219.61V142.75H214.41V115.47H219.61V126.39H231.61V115.47Z" fill="#2C3F97"/>
<path d="M245.97 115.47H251.17V142.75H245.97V115.47Z" fill="#2C3F97"/>
<path d="M260.37 115.47H265.38L277.24 134.15H277.44V115.47H282.64V142.75H277.44L265.64 123.95H265.56V142.75H260.36V115.47H260.37Z" fill="#2C3F97"/>
<path d="M307.13 115.47H313.37L304.41 125.48L314.17 142.75H308.01L300.89 129.42L297.05 133.71V142.75H291.85V115.47H297.05V127.09L307.13 115.47Z" fill="#2C3F97"/>
<path d="M358.53 117.55V123.07C355.54 120.75 352.64 119.59 349.81 119.59C347.28 119.59 345.2 120.52 343.59 122.37C341.98 124.22 341.17 126.55 341.17 129.35C341.17 132.15 341.9 134.19 343.37 135.87C344.84 137.55 346.58 138.39 348.61 138.39C349.04 138.39 349.49 138.33 349.97 138.21C350.45 138.09 351.02 137.86 351.69 137.51C352.36 137.16 352.92 136.56 353.39 135.71C353.86 134.86 354.12 133.8 354.17 132.55H347.29V128.11H359.33V142.75H354.73L354.29 139.39C352.48 141.92 350.08 143.19 347.09 143.19C344.1 143.19 341.43 141.88 339.15 139.25C336.87 136.62 335.73 133.36 335.73 129.47C335.73 125.58 337.02 121.96 339.59 119.19C342.16 116.42 345.52 115.03 349.65 115.03C352.74 115.03 355.7 115.87 358.53 117.55Z" fill="#2C3F97"/>
<path d="M367.01 115.47H372.21V138.19H385.25V142.75H367.01V115.47Z" fill="#2C3F97"/>
<path d="M403.05 115.03C407.13 115.03 410.41 116.41 412.89 119.17C415.37 121.93 416.61 125.24 416.61 129.11C416.61 132.98 415.3 136.49 412.67 139.17C410.04 141.85 406.88 143.19 403.17 143.19C399.46 143.19 396.28 141.85 393.77 139.17C391.26 136.49 390.01 133.16 390.01 129.19C390.01 125.22 391.3 121.73 393.87 119.05C396.44 116.37 399.5 115.03 403.05 115.03ZM403.45 119.43C401 119.43 399.05 120.38 397.61 122.29C396.17 124.2 395.45 126.46 395.45 129.07C395.45 131.68 396.17 133.96 397.61 135.89C399.05 137.82 400.93 138.79 403.25 138.79C405.57 138.79 407.4 137.85 408.91 135.97C410.42 134.09 411.17 131.8 411.17 129.11C411.17 126.42 410.41 124 408.89 122.17C407.37 120.34 405.56 119.43 403.45 119.43Z" fill="#2C3F97"/>
<path d="M424.21 115.39H437.13C439.29 115.39 441.03 115.98 442.35 117.17C443.67 118.36 444.33 119.87 444.33 121.71C444.33 123.71 443.6 125.34 442.13 126.59C441.46 127.2 440.53 127.68 439.33 128.03V128.11C441.12 128.22 442.53 128.64 443.57 129.39C445.25 130.54 446.09 132.26 446.09 134.55C446.09 137.06 445.06 139.05 442.99 140.53C440.92 142.01 438.29 142.75 435.09 142.75H424.21V115.39ZM435.25 119.95H429.41V126.31H433.93C435.45 126.31 436.68 126.03 437.61 125.47C438.54 124.91 439.01 124.04 439.01 122.87C439.01 121.78 438.62 121.02 437.83 120.59C437.04 120.16 436.18 119.95 435.25 119.95ZM435.81 130.59H429.41V138.19H434.45C435.06 138.19 435.66 138.15 436.23 138.07C436.8 137.99 437.46 137.83 438.19 137.59C438.92 137.35 439.52 136.94 439.97 136.37C440.42 135.8 440.65 135.08 440.65 134.23C440.65 133.06 440.18 132.16 439.25 131.53C438.32 130.9 437.17 130.59 435.81 130.59Z" fill="#2C3F97"/>
<path d="M460.25 115.47H465.33L475.29 142.75H469.45L467.09 135.43H458.4L455.97 142.75H450.25L460.25 115.47ZM465.77 131.15L462.81 122.03H462.73L459.77 131.15H465.77Z" fill="#2C3F97"/>
<path d="M481.41 115.47H486.61V138.19H499.65V142.75H481.41V115.47Z" fill="#2C3F97"/>
<path d="M507.09 115.47H512.29V138.19H525.33V142.75H507.09V115.47Z" fill="#2C3F97"/>
<path d="M527.61 115.47H533.97L539.65 125.55L545.33 115.47H551.81L542.25 130.31V142.75H537.05V130.31L527.61 115.47Z" fill="#2C3F97"/>
<path d="M555.73 136.99C556.66 136.99 557.42 137.3 558.01 137.91C558.6 138.52 558.89 139.24 558.89 140.07C558.89 140.9 558.59 141.66 557.99 142.27C557.39 142.88 556.66 143.19 555.81 143.19C554.96 143.19 554.19 142.88 553.59 142.27C552.99 141.66 552.69 140.92 552.69 140.07C552.69 139.22 553 138.46 553.61 137.87C554.22 137.28 554.93 136.99 555.73 136.99Z" fill="#2C3F97"/>
</g>
<defs>
<filter id="filter0_d_1_812" x="0.869995" y="0.19458" width="156.09" height="169.694" filterUnits="userSpaceOnUse" color-interpolation-filters="sRGB">
<feFlood flood-opacity="0" result="BackgroundImageFix"/>
<feColorMatrix in="SourceAlpha" type="matrix" values="0 0 0 0 0 0 0 0 0 0 0 0 0 0 0 0 0 0 127 0" result="hardAlpha"/>
<feOffset dx="7" dy="7"/>
<feGaussianBlur stdDeviation="5"/>
<feColorMatrix type="matrix" values="0 0 0 0 0.0156863 0 0 0 0 0 0 0 0 0 0 0 0 0 0.5 0"/>
<feBlend mode="normal" in2="BackgroundImageFix" result="effect1_dropShadow_1_812"/>
<feBlend mode="normal" in="SourceGraphic" in2="effect1_dropShadow_1_812" result="shape"/>
</filter>
<filter id="filter1_d_1_812" x="188.35" y="24.71" width="386.01" height="83.77" filterUnits="userSpaceOnUse" color-interpolation-filters="sRGB">
<feFlood flood-opacity="0" result="BackgroundImageFix"/>
<feColorMatrix in="SourceAlpha" type="matrix" values="0 0 0 0 0 0 0 0 0 0 0 0 0 0 0 0 0 0 127 0" result="hardAlpha"/>
<feOffset dx="7" dy="7"/>
<feGaussianBlur stdDeviation="5"/>
<feColorMatrix type="matrix" values="0 0 0 0 0.0156863 0 0 0 0 0 0 0 0 0 0 0 0 0 0.5 0"/>
<feBlend mode="normal" in2="BackgroundImageFix" result="effect1_dropShadow_1_812"/>
<feBlend mode="normal" in="SourceGraphic" in2="effect1_dropShadow_1_812" result="shape"/>
</filter>
<filter id="filter2_d_1_812" x="183.85" y="112.03" width="392.04" height="48.1599" filterUnits="userSpaceOnUse" color-interpolation-filters="sRGB">
<feFlood flood-opacity="0" result="BackgroundImageFix"/>
<feColorMatrix in="SourceAlpha" type="matrix" values="0 0 0 0 0 0 0 0 0 0 0 0 0 0 0 0 0 0 127 0" result="hardAlpha"/>
<feOffset dx="7" dy="7"/>
<feGaussianBlur stdDeviation="5"/>
<feColorMatrix type="matrix" values="0 0 0 0 0.0156863 0 0 0 0 0 0 0 0 0 0 0 0 0 0.5 0"/>
<feBlend mode="normal" in2="BackgroundImageFix" result="effect1_dropShadow_1_812"/>
<feBlend mode="normal" in="SourceGraphic" in2="effect1_dropShadow_1_812" result="shape"/>
</filter>
<linearGradient id="paint0_linear_1_812" x1="3.87" y1="46.75" x2="89.29" y2="46.75" gradientUnits="userSpaceOnUse">
<stop stop-color="#78CBE8" stop-opacity="0.71"/>
<stop offset="1" stop-color="#17A196"/>
</linearGradient>
<linearGradient id="paint1_linear_1_812" x1="4.1" y1="106.21" x2="85.92" y2="106.21" gradientUnits="userSpaceOnUse">
<stop stop-color="#78CBE8" stop-opacity="0.71"/>
<stop offset="1" stop-color="#17A196"/>
</linearGradient>
<linearGradient id="paint2_linear_1_812" x1="79.09" y1="82.34" x2="139.96" y2="82.34" gradientUnits="userSpaceOnUse">
<stop stop-color="#78CBE8" stop-opacity="0.71"/>
<stop offset="1" stop-color="#17A196"/>
</linearGradient>
</defs>
</svg>
