<svg width="545" height="600" viewBox="0 0 545 600" fill="none" xmlns="http://www.w3.org/2000/svg">
<g opacity="0.15">
<path fill-rule="evenodd" clip-rule="evenodd" d="M32.28 264.9C49.91 241.51 69.3 219.7 90.46 199.51C97.51 192.78 106 185.01 115.94 176.19C125.87 167.38 136.38 159.84 147.44 153.59C158.49 147.34 169.8 143.33 181.33 141.57C192.87 139.82 203.93 142.29 214.51 149.02C223.17 154.79 228.94 161.68 231.82 169.7C234.71 177.72 235.82 186.21 235.19 195.18C234.54 204.16 232.62 213.05 229.42 221.87C226.21 230.69 222.85 238.78 219.32 246.15C210.34 264.75 200.4 282.14 189.51 298.32C178.61 314.51 168.84 331.26 160.18 348.57C168.51 337.99 176.04 328.3 182.78 319.48C189.51 310.67 195.84 302.49 201.77 294.96C207.7 287.43 213.31 280.38 218.6 273.8C223.88 267.24 229.25 260.74 234.71 254.33C246.89 238.63 259.06 223.96 271.24 210.33C283.42 196.71 295.77 184.85 308.26 174.75C319.39 165.77 330.72 158.59 342.23 153.03C316.04 138.05 289.38 122.81 261.85 106.9C213.23 79.09 167.38 52.27 130.34 32.43C91.24 13.95 48.21 -15.65 21.02 10.93C-3.62996 48.97 3.57008 105.43 0.810077 151.6C0.630077 199.41 0.540068 256.24 0.550068 312.36C10.2701 296.02 20.78 280.17 32.28 264.91V264.9Z" fill="url(#paint0_linear_1_265)"/>
<path fill-rule="evenodd" clip-rule="evenodd" d="M281.34 481.27C266.92 479.67 255.21 474.47 246.24 465.64C237.26 456.83 232.22 444.96 231.09 430.06C229.97 415.16 233.09 397.36 240.46 376.69C247.83 356.01 260.66 333.02 278.93 307.69C284.06 300.32 289.82 292.15 296.24 283.17C302.64 274.2 308.58 266.18 314.03 259.13C320.11 250.8 324.29 244.47 326.53 240.14C328.77 235.82 329.33 233.17 328.21 232.21C327.09 231.25 324.44 232.05 320.28 234.61C316.11 237.18 310.98 241.18 304.89 246.63C294 255.93 283.33 266.27 272.92 277.64C262.5 289.02 252.4 300.72 242.63 312.74C232.85 324.76 223.32 336.78 214.02 348.8C204.72 360.82 195.75 372.12 187.1 382.7C178.76 392.96 170.28 404.1 161.62 416.12C152.96 428.14 143.18 438 132.29 445.69C125.56 450.5 118.59 452.74 111.37 452.42C104.16 452.1 97.3401 449.37 90.9301 444.24C85.1601 439.43 80.9901 433.98 78.4301 427.89C75.8601 421.81 74.51 415.31 74.35 408.42C74.18 401.53 74.91 394.64 76.51 387.75C78.11 380.86 80.04 374.21 82.28 367.8C87.73 352.1 95.27 335.67 104.88 318.52C114.5 301.38 123.95 285.75 133.26 271.64C138.7 263.31 143.76 255.05 148.41 246.88C153.05 238.7 155.86 232.7 156.82 228.85C157.78 225 156.25 224.45 152.26 227.17C148.24 229.9 140.31 237.67 128.46 250.49C106.98 273.89 86.63 299.29 67.4 326.7C48.16 354.11 31.65 381.44 17.87 408.68C14.34 415.41 10.73 423.19 7.05005 432C3.36005 440.82 1.83999 449.23 2.48999 457.24C2.64999 460.28 2.29999 463.06 1.48999 465.62C2.54999 508.45 -1.22996 558.71 23.04 590.76C52.51 613.83 94.17 584.14 136.52 563.83C177.17 541.71 227.88 512.05 280.49 481.97C280.88 481.74 281.28 481.52 281.67 481.29C281.57 481.29 281.47 481.29 281.37 481.28L281.34 481.27Z" fill="url(#paint1_linear_1_265)"/>
<path fill-rule="evenodd" clip-rule="evenodd" d="M459.23 220.86C447.45 213.85 435.36 206.81 423.26 199.75C422.89 201.27 422.68 202.8 422.22 204.32C419.98 211.69 417.09 218.91 413.56 225.95C410.03 233 406.19 239.89 402.03 246.63C397.85 253.36 394.01 259.78 390.49 265.86C388.88 268.1 385.03 273.88 378.95 283.17C372.86 292.47 365.8 303.37 357.8 315.87C349.78 328.37 341.52 341.44 333.04 355.06C324.54 368.69 317.25 381.11 311.16 392.32C305.71 402.26 302.58 409.31 301.79 413.48C300.99 417.65 301.71 419.81 303.96 419.97C306.2 420.13 309.49 418.77 313.82 415.88C318.15 412.99 322.87 409.55 328 405.54C333.12 401.53 338.02 397.36 342.66 393.04C347.3 388.72 351.07 385.27 353.96 382.7C362.29 375.01 369.98 367 377.04 358.66C384.09 350.33 391.63 342.16 399.64 334.14C403.49 330.62 406.92 328.85 409.98 328.85C413.04 328.85 415.35 330.14 416.95 332.7C418.55 335.27 419.12 338.88 418.64 343.52C418.16 348.17 416.15 353.38 412.62 359.15C407.81 366.85 402.68 375.34 397.24 384.64C391.78 393.94 385.94 403.32 379.69 412.77C374.86 420.08 369.65 427.07 364.25 433.9C393.01 417.4 420.4 401.62 444.52 387.48C506.42 350.92 545.04 324.94 544.95 300.23V299.35C544.94 276.61 512.68 253.03 459.26 220.88L459.23 220.86Z" fill="url(#paint2_linear_1_265)"/>
</g>
<defs>
<linearGradient id="paint0_linear_1_265" x1="0.550068" y1="174.44" x2="342.22" y2="174.44" gradientUnits="userSpaceOnUse">
<stop stop-color="#78CBE8" stop-opacity="0.71"/>
<stop offset="1" stop-color="#17A196"/>
</linearGradient>
<linearGradient id="paint1_linear_1_265" x1="1.46999" y1="412.29" x2="328.77" y2="412.29" gradientUnits="userSpaceOnUse">
<stop stop-color="#78CBE8" stop-opacity="0.71"/>
<stop offset="1" stop-color="#17A196"/>
</linearGradient>
<linearGradient id="paint2_linear_1_265" x1="301.45" y1="316.81" x2="544.91" y2="316.81" gradientUnits="userSpaceOnUse">
<stop stop-color="#78CBE8" stop-opacity="0.71"/>
<stop offset="1" stop-color="#17A196"/>
</linearGradient>
</defs>
</svg>
