<svg width="802" height="428" viewBox="0 0 802 428" fill="none" xmlns="http://www.w3.org/2000/svg">
<g filter="url(#filter0_d_0_1)">
<path d="M308.96 207.98C308.96 196.37 428.38 186.98 575.96 186.98" stroke="#CCCCCC" stroke-miterlimit="10"/>
</g>
<g opacity="0.5">
<path d="M280.96 38.47L280.98 44.48C285.8 41.96 290.93 42.62 295.79 44.66L294.63 57.0699C296.39 60.6299 299.56 57.62 303.81 58.24C307.32 58.76 311.66 62.21 313.25 62.49C314.07 62.63 313.75 59.7201 314.94 59.43C316.74 58.98 330 61.85 330.46 62.5C330.95 63.18 326.08 68.98 330.49 72.97C333.56 75.75 334.2 65.24 338.89 64.36C341.42 63.88 349.34 67.17 349.8 66.85C350.43 66.41 350.44 62.36 353.99 61.27C360.81 59.16 369.93 62.64 376.96 62.5L375.46 66.98C380.42 69.42 389.91 65.8099 393.48 67.6899C396.46 69.2499 396.45 75.01 398.71 75.99C399.36 76.27 400.11 68.97 410.47 71.5C411.85 71.84 410.82 75.5 413.68 74.48C417.59 72 411.89 67.78 416.71 68.47C432.35 68.96 444.1 76.46 457.93 82.75C456.84 85.08 453.21 84.31 452.25 85.38C451.36 86.37 452.26 89.13 451.94 89.47C450.09 91.43 439.7 84.1799 437.33 85.4499C437.05 85.5999 432.96 89.82 432.91 90.14C432.72 91.35 434.64 94.94 433.97 95.49C433.68 95.73 429.09 95.3101 426.53 96.3101C421.32 98.3601 419.9 103.52 417.38 105.17C414.3 107.19 407.12 106.74 403.87 109.76C402.61 110.93 403.31 119.01 401.63 122.43C400.2 125.35 393.22 130.82 391.21 134.47C382.54 121.97 388.37 113.88 399.45 106.74C391.08 96.76 388.49 111.25 386.56 111.79C380.37 113.53 378.43 109.58 375.03 109.41C373.18 109.32 362.33 110.81 360.77 111.57C357.21 113.29 358.2 116.45 356.39 118.08C352.33 121.73 342.64 122.72 350.71 128.49C353.37 120.54 357.66 130.16 358.19 129.99C362.49 128.61 357.86 125.49 357.45 124.01C363.51 120.36 364.68 135.72 366.47 139.72L361.94 140.5L364.94 147.99H358.95C358.28 147.38 363.9 127.25 357.45 131.51C358.58 139.81 356.11 146.83 351.8 153.59C350.93 154.96 345.03 162.7 344.37 163.11C341.42 164.91 338.21 162.64 336.48 163.69C335.76 164.13 331.38 170.87 331.03 171.97C329.59 176.49 335.23 180.23 333.46 185.49C340.09 179.53 354.05 177.27 354.55 166.71C354.67 164.15 352.94 161.14 353.29 159.41C353.69 157.43 358.63 154.8 357.47 150.99C362.29 150.81 366.68 154 367.96 158.46C363.32 159.11 360.91 161.84 355.95 160C357.17 162.8 360.37 164.76 360.35 168.23C360.35 169.04 356.2 183.09 355.62 183.66C354 185.27 340.57 186.57 336.84 191.98C335.96 193.25 336.67 195.73 336.44 195.98C333.92 198.74 330.02 189.35 331.95 187C318.88 193.91 328.27 181.92 325.94 177.99C325.81 177.77 321.92 180.12 321.63 177.26C321.32 174.14 326.45 171.03 315.47 175.01L314.72 170.5L307.97 175.75C312.14 180.22 312.47 178.56 318.46 178C319.63 182.22 311.26 183.02 311.24 186.23C311.24 186.7 315.3 191.55 316.07 194.34C317.97 201.2 312.78 213.68 307.5 218.01C304.56 220.42 295.97 222.43 293.13 225.33C290.46 228.06 290.96 234.63 285.44 231.21L286.94 226.71C276.58 225.91 289.24 238.11 289.95 241.78C291.4 249.27 286.19 255.5 279.49 257.47C279.8 254.93 272.18 245.7 270.49 246.98C270.65 249.67 268.11 251.87 267.6 254.03C267.2 255.74 280.12 267.68 279.51 276.14C279.45 277.04 276.42 277.02 276.38 277.75C276.15 281.16 280.99 284.1 282.02 287.01C282.36 287.98 281.28 294.75 280.95 294.97C275.11 298.93 270.4 284.34 268.98 282.21C266.53 278.52 258.28 269.65 257.19 267C256.4 265.08 256.34 262.7 259.19 263.49C264.58 265 267.85 274.09 273.46 273.23C271.74 270.01 265.09 258.93 264.72 256.43C264.07 252.01 267.29 243.94 263.74 237.95C261.79 234.67 260.34 239.95 257.75 239.49C254.39 237.78 257.24 235.08 256.66 233.08C256.36 232.07 252.79 223.4 252.38 223.04C252.04 222.75 243.81 223.6 243.44 223.84C242.59 224.38 230.4 237.79 229.9 238.66C226.48 244.6 228.73 254.35 221.72 258.95C218.18 258.97 212.14 237.63 211.14 233.56C210.62 231.46 210.69 226.28 210.46 225.97C210.32 225.77 208.01 227.28 206.93 227.09C203.46 226.49 202.13 217.37 196.87 214.79C193.94 213.35 180.63 215.85 175.98 212.49C175.48 217.23 181.38 216.23 182.07 220.78C184.23 234.9 150.75 245.04 148.98 249.26C147.59 252.59 150.7 251.04 152.09 250.88C156.23 250.38 160.34 249.11 163.95 247C167.23 249.75 159.88 266.59 157.75 270.03C154.02 276.05 140.25 285.84 139.12 292C137.76 299.4 144.2 313.89 142.75 319.41C141.58 323.87 131.31 327.96 130.41 332.41C129.75 335.7 131.92 339.27 130.67 343.43C129.67 346.74 120.25 363.41 117.46 366.23C112.78 370.95 99.49 376.73 93.5 373.8C88.93 371.56 91.83 366.82 91.08 362.77C89.88 356.21 85.03 342.61 82.9 334.81C82.07 331.76 79.17 329.43 78.69 326.9C77.52 320.68 83.02 314.52 82.89 309.43C82.62 298.66 74.52 290.89 72.83 283.34C72.03 279.74 75.28 273.99 73.29 270.94C71.13 267.62 65.67 271.74 64.97 271.01C64.36 270.38 66.15 265.55 61.17 264.9C56.91 264.34 54.26 267.31 50.61 267.9C39.72 269.65 34.5 270.69 26.76 261.95C26.01 261.1 18.38 250.32 18.09 249.62C15.27 242.77 18.38 239.42 18.17 234.23C18.04 230.97 16 227.87 15.92 224.99C15.77 220.21 21.64 211.38 24.67 207.47C26.54 205.06 30.15 203.98 31.18 201.98C32.43 199.57 31.8 196.05 33.04 193.31C34.3 190.54 38.21 190.25 38.83 187.09C39.78 182.28 37.8 179.37 33.45 182.51L31.97 161.56C35.72 158.12 47.76 162.39 49.24 160.05C50.72 157.71 49.8 153.87 48.33 151.83C45.47 147.86 35.82 150.93 48.96 142.55C50.74 141.41 58.29 138.63 59.99 137.13C61.63 135.69 60.85 132.66 62.91 131.34C65.14 129.92 70.65 130.25 70.94 129.97C72.42 128.54 63.68 114.73 76.92 116.49C77.67 120.42 75.98 122.53 73.93 125.46C82.1 127.67 101.07 129.24 97.93 116.47L103.91 117.97C104.51 109.52 93.48 105.63 98.68 96.97C99.36 95.83 108.8 91.41 105.42 87.98C101.74 84.25 98.85 93.78 97.97 94.77C95 98.08 88.78 98.42 90.64 104.91C91.24 106.99 94.9 109.08 94.9 109.73C94.9 110.1 91.03 113.44 90.06 115.38C87.3 120.86 90.77 122.08 82.14 125.45C79.22 126.59 80.28 124.32 79.93 123.27C78.75 119.64 77.52 115.77 76.92 111.99C76.16 111.21 64.88 124.09 63.39 108.25C62.3 96.61 69.31 98.69 76.22 91.03C78.27 88.76 88.19 73.6 89.23 73.24C90.7 72.73 92.24 74.61 93.18 74.14C93.59 73.93 98.08 70.54 99.12 70.17C111.3 65.91 112.31 67.23 123.73 71.66C127.26 73.03 128.88 72.85 130.84 73.68C133.36 74.75 138.54 79.56 142.34 80.49C139.86 90.42 149.08 82.44 145.94 76C152.99 77.59 154.72 76 151.94 83.48C152.85 84.4 164.95 75.19 167.73 74.52C171.33 73.66 169.7 77.33 169.95 78.98C172.43 79.57 170.51 76.7 172.49 76.03C174.87 75.22 181.14 73.57 181.18 77.48C186.95 73.67 175.65 73.24 178.95 69.99C180.34 68.62 198 76.62 201.44 77.47C193.03 69.91 198.29 63.99 203.7 56.49C206.72 62.03 211.67 58.16 209.68 66.98L213.44 56.48C219.03 55.04 215.26 62.27 216.45 63.99L226.94 62.48C223.89 53.78 229.83 58.1501 232.98 57.0601C245.01 52.9001 252.39 40.2 268.93 48.97L261.44 45.97V44.5C270.52 46.7 271.85 36.27 280.93 38.47H280.96ZM123.45 149.48C117.43 148.34 111.61 167.69 112.96 168.96C115.57 171.42 115.95 166.47 117.06 166.04C128.47 161.68 132.88 169.74 142.95 165.96C144.52 163.75 135.62 155.37 131.77 155.38C125.54 155.39 124.7 160.95 123.45 149.49V149.48ZM85.44 159.03C84.22 158.07 81.14 155.61 79.96 157.72C80.83 161.92 93.27 168.88 93.46 171.26C93.51 171.83 91.11 171.9 90.55 173.11C89.81 174.67 89.21 179.24 88.93 179.48C84.76 183.1 87.62 174.62 86.12 172.67C83.27 168.96 73.57 168.24 73.93 159.98C70.85 159.32 69.34 163.13 66.64 163.73C64.79 164.14 61.3 162.32 60.55 163.04C60.19 163.39 60.6 166.17 59.63 167.33C57.92 169.37 54.91 169.9 53.69 172.02C52.72 173.71 54.68 176.63 52.22 179.4C50.47 181.37 42.32 182.93 46.94 184.75C50.48 186.14 53.68 182.05 57.03 181.32C58.5 181 73.6 179.39 74.43 179.67C79.63 181.47 75.2 188.36 76.14 190.06C76.65 190.98 92.35 197.45 94.93 198.97C97.6 184.47 105.31 196.19 114.07 197.11C115.48 197.26 127.33 196.29 127.7 195.72C128.25 194.87 131.31 184.24 129.46 183.19C125.02 180.66 105.54 189.79 110.69 168.97L102.46 170.5L106.91 177.89C103.65 176.98 102.23 184.81 99.47 182.48C98.83 181.94 94.2 168.74 93.31 166.88C90.64 165.02 87.55 160.68 85.44 159.04V159.03Z" fill="#CCCCCC"/>
<path d="M546.25 64.26C546.43 64.37 546.76 69.89 549.46 66.97C549.95 66.44 546.28 62.17 548.7 60.99C550.77 61.94 553.41 68.2501 554.7 68.3101C555.17 68.3301 556.42 66.26 557.63 66.21C559.03 66.15 577.17 70.17 578.09 70.67C579.73 71.55 577.79 74.37 577.95 74.46C581.28 76.41 589.46 70.46 592.21 75.97C594.64 62.41 608.04 80.99 615.45 72.22C608.88 70.72 614.64 63.36 619.11 70.09C620.02 71.46 619.26 74.02 620.7 74.47C626.36 69.06 621.47 69.23 620.08 67.64C615.06 61.88 621.85 56.7 626.09 60.46C628.43 62.53 627.9 70.44 630.72 71.09C633.36 71.7 639.52 66.83 636.46 75.96C641.19 76.62 642.25 69.87 640.95 66.98C649.61 65.45 652.28 70.43 651.51 78.15C651.3 80.28 645.92 77.0799 646.97 81.1999L654.44 88.6999C649.24 95.9399 640.61 87.62 636.28 88.67C633.2 89.42 632.96 92.3299 631.43 93.4499C628.16 95.8599 622.06 96.35 622.9 103.67C623.83 111.81 630.93 111.04 635.02 112.63C638.25 113.89 640.05 117.04 642.85 118.34C645.09 119.38 649.65 119.26 649.9 119.52C651.21 120.87 646.68 130.98 655.94 129.96C652.76 123.57 660.62 115.97 660.5 112.64C660.37 108.94 655.86 109.51 655.85 108.14C655.82 105.71 659.17 103.18 659.02 100.72C658.98 99.98 655.92 99.88 655.96 99.28C656.91 84.62 670.74 96.38 675.95 98.83C677.58 99.6 679.76 98.1899 679.94 98.4499C681.9 101.41 674.3 102.01 677 105.88C677.12 106.05 680.73 107.23 680.98 107.24C685.47 107.47 683.74 98.8899 688.94 99.9499C689.92 100.84 692.58 114.23 693.89 116.02C695.02 117.55 706.84 122.6 707.05 123.32C708.18 127.35 705.1 133.98 705.45 134.42C706.88 136.21 715.77 135.82 712.95 146.45C710.93 145.12 707.25 146.36 706.22 146.09C705.37 145.87 705.73 144.24 704.3 143.54C702.84 142.83 697.02 144.61 698.78 138.94C699.21 137.56 704.55 131.95 703.96 131.47L691.97 135.97L694.95 138.94L682.96 135.97C682.68 138.77 686.76 136.91 688.34 138.88C688.95 139.65 684.29 150.53 693.86 147.68C695.61 147.16 697.66 143.22 699.44 145.7C699.1 148.4 687.54 155.11 686.44 155.24C684.22 155.52 679.84 148.91 675.78 156.61C671.44 164.84 672.41 160.09 667.92 165.17C664.52 169.02 665.05 174.68 664.06 176.52C662.15 180.11 653.4 183.21 652.07 189.95C651.33 193.69 656.8 202.38 654.44 207.94C648.36 208.8 649.27 198.1 647.77 195.89C644.64 191.29 637.65 197.14 634.29 197.26C631.01 197.38 626.66 194.85 622.47 195.89C618.81 196.81 612.64 223.17 623.87 223.96C635.13 224.75 626.96 211.69 640.95 215.46L636.46 230.44C653.8 230.34 646.54 232.58 647.02 241.62C647.51 250.76 652.83 246.93 656.54 247.35C658.51 247.58 660.54 249.84 661.24 249.8C662.09 249.75 670.12 238.02 673.95 239.46L674.71 242.47C677.82 234.31 678.15 242.07 679.88 243.25C684.07 246.08 688.19 241.12 689.73 241.26C690.96 241.37 699.84 253.28 702.03 254.51C706.43 256.99 711.37 254.85 715.99 259.67C718.77 262.57 723.28 270.92 717.42 271.69C719.2 279.29 722.9 272.35 725.43 272.68C728.95 273.14 730.84 277.96 731.21 278.1C731.87 278.35 737.27 276.92 741.81 278.86C742.91 279.33 751.67 285.02 751.97 285.55C757.07 294.68 747.21 300.08 744.37 307.71C742.35 313.15 743.07 326.6 739.25 330.97C737.43 333.05 733.59 332.1 731.07 333.29C722.89 337.13 722.93 346.93 718.09 354.81C714.95 359.91 710.36 367.5 703.97 363.95C707.61 367.76 706.52 374.05 701.38 375.65C695.61 377.44 694.61 373.36 693.45 383.45C688.55 380.68 686.02 383.66 691.96 385.68C687.47 388.28 688.32 395.08 682.98 395.47C681.6 399.39 687.08 399.41 687.46 399.97C688.76 401.91 673.37 414.73 683.61 421.03C685.02 421.9 693.61 422.56 690.48 425.43C690.11 425.77 681.27 427.81 680.78 427.78C677.56 427.6 668.31 421.8 667.13 418.73C666.88 418.08 664.91 405.96 665.04 405.29C665.48 403.11 668.27 400.32 667.97 399.97C667.81 399.79 665.05 400.34 664.91 399.12C664.66 396.83 668.39 381.94 669.08 377.78C670.39 369.79 672.96 363.48 673.86 357.07C674.87 349.87 676.46 330.78 675.57 324.12C674.47 315.86 666.61 315.61 663.42 310.77C660.71 306.67 658.96 296.9 656.65 292.04C655.63 289.9 652.33 288.64 651.68 286.37C650.59 282.55 653.55 281.17 653.77 279.19C654.04 276.75 652.58 274.51 653.59 270.81C654.44 267.69 657.18 267.87 658.1 266.37C660.95 261.73 661.58 250.49 654.5 249.94C657.4 259.07 644.69 249.88 642.99 247.95C634.85 238.68 642.68 242.5 629.1 235.61C621.99 232 623.59 233.23 617.34 231C613.77 229.73 600.93 224.3 599.86 221.51C599.3 220.03 600.6 217.96 599.17 214.58C597.73 211.18 591.26 207.29 589.24 203.45C587.85 204.76 594.58 216.98 588.47 211.73C587.9 211.24 581.13 201.41 579.75 199.45C577.71 196.56 576.81 192.02 574.8 189.4C568.39 181.05 559.11 172.61 557.84 160.16C557.28 154.74 560.16 148.43 557.52 142.28C556.2 139.21 548.64 138.45 548.08 135.02C547.71 132.8 551.56 130.95 551 129.97C550.49 129.08 545.06 126.14 543.52 128.43C545.49 124.09 542.85 119.35 541.27 125.48C537.84 125.54 537 122.23 537.53 119.42L540.49 118.72C539.12 112.28 535.8 117.35 534.54 116.45C534.29 116.27 532.74 111.14 533.03 110.42L536.02 108.94C528.35 109.43 516.43 100.45 508.46 101.36C507.89 101.43 503.85 107.8 499.2 107.3C497.33 107.1 497.96 102.46 495.52 102.94C496.32 113.63 483.29 117.77 474.51 119.42C475.8 115.58 487.12 112.56 486.5 108.21C485.83 103.52 478.51 111.29 476.03 108.93L476 104.43L470.02 105.94C470.7 101.6 469.84 100.79 465.51 101.43C465.08 101.06 469.88 91.58 470.35 91.26C472.07 90.08 477.51 91.9599 477.53 87.1999C472.46 88.0399 466.61 90.73 464.06 84.12C462.87 81.04 472.25 77.1101 474.5 81.9301C474.81 76.4901 469.5 76.05 466.57 74.42C461.2 71.43 469.88 71.5399 471.5 70.6999C473.66 69.5899 474.17 66.16 476.1 64.78C478.99 62.71 482.51 63.3399 485.37 62.3199C486.64 61.8699 486.56 59.42 487.38 59.38C489.53 59.28 494.39 62.32 497.33 62.86C503.86 64.05 511.49 64.43 518.34 65.84C524.46 67.1 529.77 71.3 536.37 69.59C539.5 68.78 543.95 62.71 546.29 64.21L546.25 64.26Z" fill="#CCCCCC"/>
<path d="M769.97 0.989971L768.45 3.96995L778.95 3.98997L771.46 9.96995C778.72 6.02995 780.42 10.98 781.19 11.18C785.1 12.19 795.68 4.48995 801.45 10.72C797.93 14.24 792.62 14.59 787.96 14.49L790.94 17.4599C788.83 17.8099 782.31 23.32 782.1 24.42C781.82 25.86 784.57 33.66 787.96 30.99L780.46 34L786.45 39.24C787.14 40.94 780.67 38.2999 781.95 42.22C782.6 44.22 787.8 40.9099 786.45 45.9599C781.41 48.3599 779.5 48.22 774.5 48.25C762.95 48.33 779.02 54.38 780.08 56.77C781.44 59.85 774.44 66.76 771.95 68.16C767.86 70.46 760.87 70.37 757.13 72.9C754.88 74.42 753.86 78.28 753.16 78.67C751.04 79.84 747.34 78.03 743.59 80.38C736.65 84.73 736.26 100.69 735.41 101.48C732.16 104.51 729.5 99.1 729.13 98.99C727.28 98.44 726.16 100.25 722.34 97.54C719.04 95.2 717.74 90.38 717.44 86.4699L714.47 87.99L712.15 71.37L717.45 63.99C713.23 62.31 713.03 66.34 712.62 66.52C705.75 69.6 705.17 58.68 712.95 58.74C711.62 55.55 707.31 58.47 706.96 57.99C705.96 56.62 708.92 47.56 701.02 40.67C692.3 33.07 684.77 40.01 678.83 37.43C677.27 36.75 677.28 35.12 676.39 34.47C675.33 33.7 673.28 34.21 672.74 33.79C672.34 33.48 673.69 27.81 666.94 26.81C657.88 25.47 662.41 36.45 661.95 36.97C661.11 37.93 640.61 33.33 636.47 35.47C637.47 30.59 642.01 31.58 640.96 24.99C636.93 23.51 638.57 27.74 637 28.02C634.79 28.42 632.27 27.55 629.98 28C629.4 28.11 627.57 33.27 622.96 31C623.7 35.7 632.9 32.59 633.55 33.12C635.14 34.4 633.87 37.77 636.81 38.98C640.45 40.48 650.91 36.25 655.95 38.5C657.47 48.26 647.34 40.64 643.95 45.97C649.42 46.4799 656.45 44.83 661.58 46.98C663.71 47.87 666.59 53.25 668.42 54.53C669.56 55.33 671.71 54.62 672.7 55.11C674.61 56.05 674.68 59.73 679.94 57.99C676.86 64.59 680.78 61.74 681.41 62.49C684.3 65.94 678.25 64.4899 678.45 66.9599C682.74 66.2599 688.64 72.39 690.09 72.92C691.55 73.45 694.51 72.63 694.94 72.99C695.94 73.81 691.6 81.28 691.91 83.49C686.57 82.12 686.65 75.73 679.93 77.5C681.16 80.82 687.97 82.4 688.58 85.92C689.93 93.79 685.19 91.2 684.77 91.43C684.31 91.68 684.99 93.76 682.22 94.14C674.16 95.25 669.33 80.65 658.92 84.98V80.49C666.26 83.56 672.43 73.73 667.56 68.79C665.78 66.98 662.29 68.52 662.12 68.3C661.39 67.36 662.36 64.72 659.52 62.52C655.34 59.28 618.3 69.13 637.93 44.49H628.94C628.28 47.13 633.43 44.7799 631.92 48.1999C631.74 48.6099 626.01 54.5099 625.6 54.6899C623.7 55.5399 621.68 53.51 619.86 54.27C618.41 54.87 617.47 58.02 614.68 58.04C613.53 58.04 604.98 51.81 604.96 51.22C604.87 48.67 615.9 44.15 618.44 45.98C618.89 46.3 615.66 51.38 619.92 51.97C619.35 48.12 620.86 45.89 622.93 42.99C619.06 41.28 613.56 43.74 610.41 43.03C606.74 42.2 613.85 40.44 604.15 42.14C600.59 42.77 596.41 42.77 592.58 43.37C590.54 43.69 586.48 45.8799 586.13 45.8299C584.65 45.6299 584.33 41.98 583.79 41.63C583.46 41.42 577.67 44.7799 576.46 40.6999C575.21 36.5299 579.19 35.2699 582.47 35.4399L580.94 32.48H585.46L583.93 35.4599C588.12 34.5099 588.87 38.3299 592.21 39.9599C593.63 38.7399 589.93 32.4 593.7 32.5C595.12 32.54 603.52 42.9199 607.94 38.4599L603.45 33.99C610.86 35.56 614.96 34.6499 621.45 30.9499C622.13 29.9799 609.02 20.2299 624.45 24.9599C622.98 21.8699 619.46 20.94 619.87 16.85C619.91 16.47 624.99 11.67 625.35 11.56C628.91 10.47 634.61 18.68 639.45 17.47L633.51 14.39L634.97 11.5C632 11.42 629.59 12.7 630.45 8.49998C635.51 8.96998 640.14 7.05003 644.94 6.05003C646.33 5.76003 648.49 7.11001 650.33 6.66001C652.6 6.11001 654.34 3.16996 656.9 2.84996C660.02 2.45996 662.5 5.18998 664.26 5.49998C664.97 5.61998 664.72 2.76995 665.63 2.71995C676.71 2.10995 686.16 2.21995 696.85 5.58995C697.97 5.93995 697.88 8.28002 698.62 8.29002C701.21 8.31002 704.91 6.40998 709.29 6.86998C711.51 7.10998 711.39 10.56 716.59 10.01C718.54 9.79999 716.86 6.11998 717.46 5.49998C718.53 4.38998 726.13 7.64998 727.94 8.49998C726.56 -4.51002 736.13 4.62993 740.52 4.06993C741.39 3.95993 741.31 1.60998 742.62 1.11998C749.7 -1.55002 761.97 2.52999 769.97 1.00999V0.989971Z" fill="#CCCCCC"/>
<path d="M361.94 309.98C362.21 310.27 362.52 315.87 363.55 317.83C365.45 321.45 368.43 327.76 370.32 330.87C373.31 335.79 382.93 344.83 384.14 350.04C387.32 363.75 378.97 372.25 376.61 384.64C374.29 384.73 371.37 387.47 369.87 387.66C368.12 387.88 367.01 385.81 365.74 385.72C363.5 385.56 361.24 387.05 358.52 386.28C355.23 385.36 349.55 375.28 349.94 371.49L346.21 375.95C341.03 363.79 333.4 366.97 322.62 370.11C321.45 370.45 321.55 372.59 320.37 372.91C318.25 373.5 308.9 375.75 307.09 375.97C297.5 377.14 302.4 370.47 301.34 363.92C300.59 359.25 296.38 354.49 296.21 352.48C296.07 350.8 298.11 349.5 298.21 348.27C298.43 345.65 296.32 343.13 298.18 339.99C300.51 336.03 309.77 335.7 313.26 332.54C317.46 328.74 320.6 316.43 328.15 317.38C329.27 317.52 328.82 320.3 328.98 320.42C332.34 322.88 331.81 317.22 333.34 315.17C337.36 309.78 343.02 312.65 348.45 312.98C349.09 315.13 345.12 321.31 345.5 321.84C345.83 322.31 354.63 327.97 355.2 327.93C358.97 327.67 358.64 314.7 358.95 312.2C359.21 310.14 359.8 307.68 361.92 309.96L361.94 309.98Z" fill="#CCCCCC"/>
<path d="M578.41 48.5C581.1 50.14 587.73 50.08 588.28 50.69C589.29 51.8 587.06 55.47 589.94 54.97L590.7 48.98L595.94 53.47C596.66 47.81 597.56 46.58 603.45 47.48C602.52 50.67 601.56 55.43 603.43 58.39C604.17 59.57 612.38 61.8701 610.94 63.9301C610.85 64.0601 609.52 63.34 608.07 65.21C606.58 67.13 610.48 69.8001 601.87 67.8001C600.36 67.4501 598.92 65.63 598.17 65.47C597.49 65.32 597.75 67.87 595.42 68.74C592.49 69.82 586.47 70.6401 583.51 69.9301C582.57 69.7101 582.63 67.89 581.24 67.14C579.23 66.05 574.2 67.56 574.95 62.49L585.43 61C576.73 60.73 572.5 63.98 571.92 53.49C571.11 52.84 568.58 59.4 563.41 59.09C561.51 58.98 555.46 55.06 555.46 54.24C555.46 53.85 558.31 51.6501 558.81 50.0401C559.62 47.4201 557.46 44.3001 560.89 43.1801C566.51 41.3401 569.99 46.35 575.45 44.72C577.26 45.1 577.47 47.95 578.39 48.51L578.41 48.5Z" fill="#CCCCCC"/>
<path d="M381.45 291.96L378.45 287.49L385.94 291.22C383.87 292.87 381.29 295.3 378.8 296.11C374.34 297.57 369.69 294.19 373.57 302.14C376.08 307.28 379.64 301.11 378.43 308.47C373.56 310.06 365.54 299.58 363.47 300.99C360.39 303.09 366.03 307.4 354.68 302.91C351.66 301.71 344.97 302.41 352.94 298.74C349.96 290.79 340.97 292.42 339.36 291.2C337.53 289.82 336.89 283.77 334.94 281.48C339.01 280.17 341.82 284.05 344.76 284.42C352.35 285.38 355.68 284.85 363.98 289.18C371.26 292.98 369.11 297.23 381.44 291.95L381.45 291.96Z" fill="#CCCCCC"/>
<path d="M163.45 326.15C163.3 326.56 161.44 326.49 161.3 327.2C160.73 329.91 157.77 345.66 157.88 346.64C157.96 347.4 163.74 347.77 160.94 350.47C160.3 351.09 157.73 348.81 156.65 349.22C156.07 349.44 152.12 358.65 147.86 349.32C144.33 341.59 147.99 340.81 148.52 336.03C148.84 333.18 146.45 330.94 148.5 326.82C150.33 323.16 159.17 322.43 157.96 314.47C163.33 314.44 164.99 322.03 163.44 326.14L163.45 326.15Z" fill="#CCCCCC"/>
<path d="M45.44 113.47C53.42 112.66 47.92 115.25 49.07 119.53C49.84 122.4 57.43 131.05 57.29 131.97C56.3 138.64 44.8 138.06 39.45 138.96L43.94 134.49L30.43 133.7C30.55 131.18 32.99 123.93 35.36 122.94C37.43 122.08 40.64 122.7 40.96 122.45C41.67 121.89 35.2 109.42 46.95 108.97L45.45 113.46L45.44 113.47Z" fill="#CCCCCC"/>
<path d="M204.46 35.49C205.63 46.38 198.38 42.97 192.54 45.32C188.09 47.11 184.01 51.29 180.27 54.13C179.15 54.98 176.76 54.6801 176.12 55.1701C175.75 55.4601 175.79 64.03 175.88 64.51C176.15 66.07 180.43 64.44 178.95 68.47C171 70.96 171.81 63.82 165.45 63.96C168.62 56.85 174.11 46.85 180.57 42.33C183.76 40.1 202.42 33.48 204.46 35.48V35.49Z" fill="#CCCCCC"/>
<path d="M290.05 288.88C289.59 288.43 286.79 277 286.98 276.28C287.57 274.01 290.69 275.23 291.07 274.91C292.92 273.37 305.57 259.87 306.43 260.48C311.15 266.73 307.11 267.76 306.91 270.46C306.75 272.71 308.21 274.8 307.7 277.33C307.38 278.92 304.61 288.44 304.22 289.01C303.03 290.73 290.57 289.4 290.05 288.88Z" fill="#CCCCCC"/>
<path d="M91.64 25.3C92.21 25.65 92.47 27.84 93.59 28.53C96.55 30.37 100.68 31.66 103.5 33.63C104.51 34.34 107.69 34.4799 105.46 36.9599C103.23 39.4399 94.8 37.9399 95.72 32.4899C93.47 33.8899 89.97 42.63 88.25 42.76C85.1 42.99 79.12 38.2099 81.46 33.9699C74.81 36.5899 74.46 31.95 73.97 26.5C77.98 28.15 89.37 23.92 91.65 25.31L91.64 25.3Z" fill="#CCCCCC"/>
<path d="M22.62 80.8001C23.27 81.0701 26.32 84.67 25.66 86.83C23 95.61 12.63 96.56 4.94 93.97C8.05 86.97 4.71 91.28 0.48 87.23C5.89 78.88 7.58 84.5301 11.05 84.3101C14.01 84.1201 20.18 79.7901 22.61 80.8001H22.62Z" fill="#CCCCCC"/>
</g>
<g filter="url(#filter1_d_0_1)">
<path d="M308.96 217.98C314.483 217.98 318.96 213.503 318.96 207.98C318.96 202.457 314.483 197.98 308.96 197.98C303.437 197.98 298.96 202.457 298.96 207.98C298.96 213.503 303.437 217.98 308.96 217.98Z" fill="white"/>
</g>
<g filter="url(#filter2_d_0_1)">
<path d="M575.96 196.98C581.483 196.98 585.96 192.503 585.96 186.98C585.96 181.457 581.483 176.98 575.96 176.98C570.437 176.98 565.96 181.457 565.96 186.98C565.96 192.503 570.437 196.98 575.96 196.98Z" fill="white"/>
</g>
<defs>
<filter id="filter0_d_0_1" x="305.46" y="183.48" width="287.5" height="41.5" filterUnits="userSpaceOnUse" color-interpolation-filters="sRGB">
<feFlood flood-opacity="0" result="BackgroundImageFix"/>
<feColorMatrix in="SourceAlpha" type="matrix" values="0 0 0 0 0 0 0 0 0 0 0 0 0 0 0 0 0 0 127 0" result="hardAlpha"/>
<feOffset dx="7" dy="7"/>
<feGaussianBlur stdDeviation="5"/>
<feColorMatrix type="matrix" values="0 0 0 0 0.0156863 0 0 0 0 0 0 0 0 0 0 0 0 0 0.5 0"/>
<feBlend mode="normal" in2="BackgroundImageFix" result="effect1_dropShadow_0_1"/>
<feBlend mode="normal" in="SourceGraphic" in2="effect1_dropShadow_0_1" result="shape"/>
</filter>
<filter id="filter1_d_0_1" x="295.96" y="194.98" width="40" height="40" filterUnits="userSpaceOnUse" color-interpolation-filters="sRGB">
<feFlood flood-opacity="0" result="BackgroundImageFix"/>
<feColorMatrix in="SourceAlpha" type="matrix" values="0 0 0 0 0 0 0 0 0 0 0 0 0 0 0 0 0 0 127 0" result="hardAlpha"/>
<feOffset dx="7" dy="7"/>
<feGaussianBlur stdDeviation="5"/>
<feColorMatrix type="matrix" values="0 0 0 0 0.0156863 0 0 0 0 0 0 0 0 0 0 0 0 0 0.5 0"/>
<feBlend mode="normal" in2="BackgroundImageFix" result="effect1_dropShadow_0_1"/>
<feBlend mode="normal" in="SourceGraphic" in2="effect1_dropShadow_0_1" result="shape"/>
</filter>
<filter id="filter2_d_0_1" x="562.96" y="173.98" width="40" height="40" filterUnits="userSpaceOnUse" color-interpolation-filters="sRGB">
<feFlood flood-opacity="0" result="BackgroundImageFix"/>
<feColorMatrix in="SourceAlpha" type="matrix" values="0 0 0 0 0 0 0 0 0 0 0 0 0 0 0 0 0 0 127 0" result="hardAlpha"/>
<feOffset dx="7" dy="7"/>
<feGaussianBlur stdDeviation="5"/>
<feColorMatrix type="matrix" values="0 0 0 0 0.0156863 0 0 0 0 0 0 0 0 0 0 0 0 0 0.5 0"/>
<feBlend mode="normal" in2="BackgroundImageFix" result="effect1_dropShadow_0_1"/>
<feBlend mode="normal" in="SourceGraphic" in2="effect1_dropShadow_0_1" result="shape"/>
</filter>
</defs>
</svg>
