<svg width="121" height="121" viewBox="0 0 121 121" fill="none" xmlns="http://www.w3.org/2000/svg">
<path d="M62.05 0.150024L66.32 0.450012C92.81 3.02001 114.87 23.47 119.44 49.67C126.54 90.35 91.67 125.76 50.91 119.41C24.27 115.26 3.28 92.95 0.679999 66.1L0.379996 61.8199C0.409996 60.7199 0.339996 59.61 0.379996 58.52C1.61 26.47 26.71 1.38001 58.75 0.140015H62.05V0.150024ZM60.4 31.06L31.15 31.14V89.21C31.36 89.57 31.46 89.29 31.52 89.29H60.4V31.06ZM89.65 49.22H63.99V52.97H89.5V49.4399C89.5 49.4399 89.73 49.27 89.65 49.21V49.22ZM89.5 56.4301H63.99V89.29H71.12C71.12 89.29 71.24 89.4799 71.35 89.4399V74.73H81.93L82.16 74.96V89.22L89.33 89.42L89.66 89.22L89.52 56.4399L89.5 56.4301Z" fill="white"/>
<path d="M42.09 52.97H35.04V60.17H42.09V52.97Z" fill="white"/>
<path d="M56.64 38.42H49.59V45.62H56.64V38.42Z" fill="white"/>
<path d="M56.64 52.97H49.59V60.17H56.64V52.97Z" fill="white"/>
<path d="M42.09 38.42V45.47C41.94 45.42 41.76 45.62 41.71 45.62H35.03V38.42H42.08H42.09Z" fill="white"/>
<path d="M56.64 67.53V74.58H49.96C49.96 74.58 49.75 74.79 49.58 74.73V67.53H56.63H56.64Z" fill="white"/>
<path d="M42.09 67.53V74.58H35.26C35.26 74.58 35.14 74.77 35.03 74.73V67.53H42.08H42.09Z" fill="white"/>
</svg>
