<svg width="121" height="121" viewBox="0 0 121 121" fill="none" xmlns="http://www.w3.org/2000/svg">
<path d="M61.1 120.07H60.43C14.73 119.75 -14.13 69.93 8.82001 30.02C31.5 -9.42997 88.61 -10.03 112.09 28.97C136.12 68.89 107.36 119.75 61.11 120.08L61.1 120.07ZM98.32 40.12L59.14 25.93L23.1 40.08L23.02 79.39L66.16 100.59L66.77 100.55L98.26 79.41L98.32 40.12Z" fill="white"/>
<path d="M28.9 44.14L66.32 58.9V93.49L65.93 93.72L28.9 75.4399V44.14ZM43.39 71.8101V63.88C44.23 63.99 45.21 64.62 46.01 64.72C46.27 64.75 46.3 64.74 46.26 64.47L42.05 56.28C41.72 56.22 41.57 56.5 41.38 56.71C39.96 58.25 38.88 60.18 37.5 61.77C37.45 62.15 37.58 61.97 37.75 62.02C38.21 62.17 40.24 62.68 40.34 62.97L40.44 70.8L43.4 71.8101H43.39ZM55.03 76.88V68.11L57.48 68.95L57.73 68.7L53.43 60.35L48.96 66.08L51.84 67.03L51.91 75.7L55.03 76.88ZM57.89 85.14V81.51L37.32 71.8101V75.52L57.89 85.14Z" fill="white"/>
<path d="M76.77 51.73L68.52 56.05L67.97 56.09L33.28 42.46L43.44 38.61L76.27 51.3101L76.77 51.73Z" fill="white"/>
<path d="M91.1 43.8L90.88 44.1801C88.83 44.9201 86.09 47.16 84.13 47.73C83.98 47.77 83.85 47.86 83.67 47.79L51.48 35.2L59.28 32.36L91.1 43.8Z" fill="white"/>
</svg>
