<svg width="121" height="121" viewBox="0 0 121 121" fill="none" xmlns="http://www.w3.org/2000/svg">
<path d="M102.62 17.91C134.2 48.85 122.19 102.52 80.6899 117.21C34.9299 133.41 -10.1 91.43 2.73997 44.68C14.78 0.800045 69.98 -14.06 102.62 17.91ZM81.72 36.6899C67.67 21.8899 43.05 25.69 34.24 44.05C27.55 57.99 33.82 68.51 42.27 79.51C46.97 85.63 52.95 92.31 58.61 97.54C58.86 97.77 60.3299 99.14 60.4499 99.17C60.6199 99.22 60.76 99.17 60.88 99.04C68.08 92.1 75.22 84.73 81.04 76.5601C85.16 70.7801 90.04 62.9199 89.77 55.5799C89.51 48.5799 86.51 41.72 81.73 36.68L81.72 36.6899Z" fill="white"/>
<path d="M49.15 67.7199C40.93 60.1599 42.68 46.5 52.34 41.05C62.22 35.47 74.8201 41.26 76.9301 52.38C79.9301 68.2 61.06 78.6699 49.15 67.7199Z" fill="white"/>
</svg>
