<svg width="114" height="126" viewBox="0 0 114 126" fill="none" xmlns="http://www.w3.org/2000/svg">
<path fill-rule="evenodd" clip-rule="evenodd" d="M6.66002 55.5801C10.33 50.7101 14.37 46.16 18.78 41.96C20.25 40.56 22.02 38.9401 24.09 37.1001C26.16 35.2601 28.35 33.6902 30.65 32.3902C32.95 31.0902 35.31 30.2502 37.71 29.8902C40.11 29.5202 42.42 30.04 44.62 31.44C46.42 32.64 47.63 34.08 48.23 35.75C48.83 37.42 49.06 39.1901 48.93 41.0601C48.79 42.9301 48.39 44.7802 47.73 46.6202C47.06 48.4602 46.36 50.1402 45.63 51.6802C43.76 55.5502 41.69 59.1799 39.42 62.5499C37.15 65.9199 35.11 69.4101 33.31 73.0201C35.04 70.8201 36.61 68.8 38.02 66.96C39.42 65.12 40.74 63.4201 41.98 61.8501C43.22 60.2801 44.38 58.81 45.49 57.44C46.59 56.07 47.71 54.7199 48.85 53.3799C51.39 50.1099 53.92 47.05 56.46 44.21C59 41.37 61.57 38.8998 64.17 36.7999C66.49 34.9299 68.85 33.4298 71.25 32.2798C65.79 29.1598 60.24 25.98 54.51 22.67C44.38 16.88 34.83 11.2899 27.11 7.14995C18.96 3.29995 10 -2.87003 4.34001 2.66997C-0.79999 10.6 0.700019 22.36 0.130019 31.98C0.0900188 41.94 0.0700005 53.7803 0.0800005 65.4703C2.11 62.0703 4.30002 58.7599 6.69002 55.5899L6.66002 55.5801Z" fill="white"/>
<path fill-rule="evenodd" clip-rule="evenodd" d="M58.55 100.65C55.55 100.32 53.11 99.2301 51.24 97.3901C49.37 95.5501 48.32 93.0799 48.08 89.9799C47.85 86.8699 48.5 83.1698 50.03 78.8598C51.57 74.5498 54.24 69.7602 58.04 64.4902C59.11 62.9502 60.31 61.2498 61.65 59.3798C62.98 57.5098 64.22 55.84 65.36 54.37C66.63 52.63 67.5 51.3101 67.97 50.4101C68.44 49.5101 68.55 48.9597 68.32 48.7597C68.09 48.5597 67.53 48.7297 66.67 49.2597C65.8 49.7997 64.73 50.6297 63.46 51.7597C61.19 53.6997 58.97 55.8501 56.8 58.2201C54.63 60.5901 52.53 63.0297 50.49 65.5297C48.45 68.0297 46.47 70.54 44.53 73.04C42.59 75.54 40.72 77.9 38.92 80.1C37.18 82.24 35.41 84.56 33.61 87.06C31.81 89.56 29.77 91.6201 27.5 93.2201C26.1 94.2201 24.65 94.69 23.14 94.62C21.64 94.55 20.22 93.9898 18.88 92.9198C17.68 91.9198 16.81 90.7797 16.27 89.5097C15.74 88.2397 15.45 86.8901 15.42 85.4501C15.38 84.0101 15.54 82.5801 15.87 81.1401C16.2 79.7001 16.6 78.3199 17.07 76.9799C18.21 73.7099 19.78 70.2899 21.78 66.7099C23.78 63.1399 25.75 59.8799 27.69 56.9399C28.82 55.1999 29.88 53.4797 30.85 51.7797C31.82 50.0797 32.4 48.8299 32.6 48.0199C32.8 47.2099 32.48 47.0998 31.65 47.6698C30.81 48.2398 29.16 49.8597 26.69 52.5297C22.21 57.4097 17.97 62.7001 13.97 68.4101C9.96 74.1201 6.51999 79.8102 3.64999 85.4902C2.91999 86.8902 2.15999 88.51 1.39999 90.35C0.629994 92.19 0.310012 93.9398 0.450012 95.6098C0.480012 96.2398 0.40999 96.8198 0.23999 97.3598C0.45999 106.28 -0.329989 116.75 4.73001 123.43C10.87 128.24 19.55 122.05 28.37 117.82C36.84 113.21 47.4 107.03 58.36 100.77C58.44 100.72 58.52 100.68 58.61 100.63C58.59 100.63 58.57 100.63 58.55 100.63V100.65Z" fill="white"/>
<path fill-rule="evenodd" clip-rule="evenodd" d="M95.61 46.3999C93.16 44.9399 90.64 43.47 88.12 42C88.04 42.32 88 42.6302 87.9 42.9502C87.43 44.4902 86.83 45.99 86.1 47.46C85.37 48.93 84.56 50.36 83.7 51.77C82.83 53.17 82.03 54.5098 81.3 55.7798C80.96 56.2498 80.16 57.4501 78.9 59.3901C77.63 61.3301 76.16 63.6002 74.49 66.2002C72.82 68.8002 71.1 71.5299 69.33 74.3599C67.56 77.1999 66.04 79.7901 64.77 82.1201C63.63 84.1901 62.98 85.6598 62.82 86.5298C62.65 87.3998 62.8 87.8499 63.27 87.8799C63.74 87.9099 64.42 87.6298 65.32 87.0298C66.22 86.4298 67.21 85.7099 68.27 84.8799C69.34 84.0499 70.36 83.18 71.33 82.27C72.3 81.37 73.08 80.6501 73.68 80.1201C75.41 78.5201 77.02 76.8499 78.49 75.1099C79.96 73.3699 81.53 71.67 83.2 70C84 69.27 84.72 68.8999 85.35 68.8999C85.98 68.8999 86.47 69.1702 86.8 69.7002C87.13 70.2402 87.25 70.9902 87.15 71.9502C87.05 72.9202 86.63 74 85.9 75.21C84.9 76.81 83.83 78.58 82.7 80.52C81.56 82.46 80.35 84.4099 79.04 86.3799C78.03 87.8999 76.95 89.3598 75.82 90.7798C81.81 87.3398 87.52 84.0499 92.54 81.1099C105.43 73.4899 113.48 68.0802 113.46 62.9302V62.75C113.46 58.01 106.74 53.0999 95.61 46.3999Z" fill="white"/>
</svg>
