<svg width="810" height="129" viewBox="0 0 810 129" fill="none" xmlns="http://www.w3.org/2000/svg">
<g filter="url(#filter0_d_1_14)">
<path d="M32.6 38.06C30.62 39.01 28.74 39.78 26.97 40.36C25.2 40.95 23.26 41.24 21.16 41.24C18.69 41.24 16.38 40.77 14.21 39.83C12.04 38.89 10.19 37.59 8.66 35.92C7.12 34.25 5.93 32.29 5.09 30.02C4.24 27.75 3.82001 25.34 3.82001 22.79C3.82001 19.34 4.58001 16.16 6.10001 13.25C7.62001 10.34 9.72999 8.06002 12.43 6.40002C15.13 4.74002 18.16 3.91998 21.53 3.91998C24.01 3.91998 26.16 4.27002 27.97 4.96002C29.78 5.65002 31.33 6.40002 32.6 7.21002V15.72C31.25 14.62 29.76 13.62 28.11 12.73C26.46 11.84 24.6 11.4 22.53 11.4C20.65 11.4 18.95 11.9 17.45 12.9C15.94 13.9 14.76 15.27 13.9 17.01C13.05 18.75 12.62 20.66 12.62 22.73C12.62 24.97 13.08 26.94 13.99 28.62C14.9 30.3 16.09 31.58 17.56 32.45C19.03 33.32 20.51 33.76 22.01 33.76C23.22 33.76 24.74 33.5 26.56 32.97C28.39 32.44 30.4 31.27 32.59 29.46V38.05L32.6 38.06Z" fill="white"/>
<path d="M74.98 22.48C74.98 25 74.53 27.4 73.63 29.67C72.73 31.95 71.45 33.96 69.79 35.71C68.13 37.46 66.15 38.82 63.86 39.79C61.57 40.76 59.08 41.24 56.37 41.24C53.66 41.24 51.09 40.75 48.83 39.76C46.57 38.77 44.63 37.42 43.05 35.7C41.46 33.97 40.24 31.97 39.37 29.7C38.51 27.42 38.08 25.05 38.08 22.58C38.08 19.82 38.57 17.28 39.55 14.97C40.53 12.66 41.88 10.68 43.59 9.03998C45.3 7.39998 47.25 6.14 49.44 5.25C51.63 4.36 53.87 3.91998 56.17 3.91998C58.98 3.91998 61.54 4.4 63.86 5.37C66.17 6.34 68.15 7.66003 69.8 9.34003C71.45 11.02 72.72 13.01 73.63 15.29C74.54 17.58 74.99 19.97 74.99 22.47L74.98 22.48ZM66.18 22.59C66.18 20.5 65.76 18.57 64.93 16.79C64.09 15.01 62.94 13.62 61.48 12.6C60.01 11.58 58.42 11.07 56.69 11.07C54.79 11.07 53.09 11.61 51.58 12.67C50.07 13.74 48.91 15.15 48.1 16.91C47.29 18.67 46.88 20.56 46.88 22.58C46.88 24.6 47.29 26.47 48.11 28.25C48.93 30.03 50.08 31.44 51.55 32.49C53.02 33.54 54.68 34.07 56.53 34.07C57.93 34.07 59.21 33.77 60.39 33.16C61.56 32.56 62.59 31.72 63.47 30.64C64.35 29.56 65.02 28.33 65.49 26.95C65.96 25.57 66.19 24.11 66.19 22.58L66.18 22.59Z" fill="white"/>
<path d="M113.08 40.65H104.7L90.49 18.39H90.39V40.65H81.98V4.5H90.39L104.6 26.89H104.7V4.5H113.08V40.65Z" fill="white"/>
<path d="M152.74 40.65H144.36L130.15 18.39H130.05V40.65H121.64V4.5H130.05L144.26 26.89H144.36V4.5H152.74V40.65Z" fill="white"/>
<path d="M186.78 40.65H161.29V4.5H186.78V11.93H169.7V18.3H185.93V25.44H169.7V33.23H186.78V40.66V40.65Z" fill="white"/>
<path d="M221.49 38.06C219.51 39.01 217.63 39.78 215.86 40.36C214.09 40.95 212.15 41.24 210.05 41.24C207.58 41.24 205.27 40.77 203.1 39.83C200.93 38.89 199.08 37.59 197.55 35.92C196.01 34.25 194.82 32.29 193.98 30.02C193.13 27.75 192.71 25.34 192.71 22.79C192.71 19.34 193.47 16.16 194.99 13.25C196.51 10.34 198.62 8.06002 201.32 6.40002C204.02 4.74002 207.05 3.91998 210.42 3.91998C212.9 3.91998 215.05 4.27002 216.86 4.96002C218.67 5.65002 220.22 6.40002 221.49 7.21002V15.72C220.14 14.62 218.65 13.62 217 12.73C215.35 11.84 213.49 11.4 211.42 11.4C209.54 11.4 207.84 11.9 206.34 12.9C204.83 13.9 203.65 15.27 202.79 17.01C201.94 18.75 201.51 20.66 201.51 22.73C201.51 24.97 201.97 26.94 202.88 28.62C203.79 30.3 204.98 31.58 206.45 32.45C207.92 33.32 209.4 33.76 210.9 33.76C212.11 33.76 213.63 33.5 215.45 32.97C217.28 32.44 219.29 31.27 221.48 29.46V38.05L221.49 38.06Z" fill="white"/>
<path d="M254.63 11.93H244.36V40.66H235.92V11.93H225.7V4.5H254.63V11.93Z" fill="white"/>
<path d="M268.92 40.65H260.35V4.5H268.92V40.65Z" fill="white"/>
<path d="M308.48 40.65H300.1L285.89 18.39H285.79V40.65H277.38V4.5H285.79L300 26.89H300.1V4.5H308.48V40.65Z" fill="white"/>
<path d="M347.75 40.65H340.14L339.29 37.16C338.24 38.3 337.04 39.26 335.71 40.06C334.38 40.86 332.69 41.25 330.65 41.25C328.13 41.25 325.71 40.52 323.38 39.05C321.05 37.58 319.16 35.46 317.71 32.68C316.26 29.9 315.54 26.71 315.54 23.1C315.54 20.41 315.98 17.88 316.87 15.5C317.76 13.13 319.02 11.09 320.66 9.38C322.3 7.67 324.28 6.34 326.61 5.37C328.94 4.4 331.48 3.91998 334.24 3.91998C336.69 3.91998 338.86 4.22002 340.76 4.83002C342.66 5.43002 344.64 6.26 346.71 7.31V15.95C345.99 15.42 345.22 14.89 344.42 14.38C343.62 13.87 342.73 13.39 341.75 12.93C340.77 12.47 339.72 12.1 338.59 11.82C337.46 11.54 336.31 11.39 335.13 11.39C333.37 11.39 331.8 11.71 330.42 12.35C329.04 12.99 327.9 13.85 327 14.92C326.1 16 325.43 17.22 324.98 18.59C324.53 19.96 324.31 21.39 324.31 22.87C324.31 24.8 324.66 26.6 325.37 28.25C326.08 29.91 327.09 31.23 328.4 32.24C329.71 33.24 331.19 33.74 332.85 33.74C334.51 33.74 335.9 33.23 337.2 32.2C338.49 31.17 339.18 29.6 339.27 27.48H330.99V20.6H347.73V40.63L347.75 40.65Z" fill="white"/>
<path d="M415.6 4.5L406.59 40.65H398.23L393.88 18.29H393.78L389.64 40.65H381.46L372.3 4.5H381.2L385.39 27.25H385.49L389.63 4.5H397.94L402.39 27.04H402.52L406.32 4.5H415.59H415.6Z" fill="white"/>
<path d="M456.75 22.48C456.75 25 456.3 27.4 455.4 29.67C454.5 31.95 453.22 33.96 451.56 35.71C449.9 37.46 447.92 38.82 445.63 39.79C443.34 40.76 440.85 41.24 438.14 41.24C435.43 41.24 432.86 40.75 430.6 39.76C428.34 38.77 426.4 37.42 424.82 35.7C423.23 33.97 422.01 31.97 421.14 29.7C420.28 27.42 419.85 25.05 419.85 22.58C419.85 19.82 420.34 17.28 421.32 14.97C422.3 12.66 423.65 10.68 425.36 9.03998C427.07 7.39998 429.02 6.14 431.21 5.25C433.4 4.36 435.64 3.91998 437.94 3.91998C440.75 3.91998 443.31 4.4 445.63 5.37C447.94 6.34 449.92 7.66003 451.57 9.34003C453.22 11.02 454.49 13.01 455.4 15.29C456.31 17.58 456.76 19.97 456.76 22.47L456.75 22.48ZM447.95 22.59C447.95 20.5 447.53 18.57 446.7 16.79C445.86 15.01 444.71 13.62 443.25 12.6C441.78 11.58 440.19 11.07 438.46 11.07C436.56 11.07 434.86 11.61 433.35 12.67C431.84 13.74 430.68 15.15 429.87 16.91C429.06 18.67 428.65 20.56 428.65 22.58C428.65 24.6 429.06 26.47 429.88 28.25C430.7 30.03 431.85 31.44 433.32 32.49C434.79 33.54 436.45 34.07 438.3 34.07C439.7 34.07 440.98 33.77 442.16 33.16C443.33 32.56 444.36 31.72 445.24 30.64C446.12 29.56 446.79 28.33 447.26 26.95C447.73 25.57 447.96 24.11 447.96 22.58L447.95 22.59Z" fill="white"/>
<path d="M493.36 40.65H483.89L481.35 32.55C480.71 30.57 480.01 29.12 479.25 28.22C478.49 27.31 477.62 26.74 476.64 26.5C475.66 26.26 474.16 26.12 472.16 26.09V40.66H463.75V4.46002H477.62C480.78 4.46002 483.35 4.73998 485.33 5.28998C487.31 5.83998 488.89 6.69998 490.07 7.84998C491.71 9.43998 492.53 11.33 492.53 13.52C492.53 16.26 491.31 18.64 488.86 20.64C487.88 21.42 486.93 21.99 486.03 22.36C485.12 22.73 483.99 23.07 482.63 23.38V23.48C484.29 23.88 485.71 24.57 486.9 25.56C488.09 26.55 489.08 28.23 489.88 30.59L493.37 40.66L493.36 40.65ZM483.73 15.01C483.73 13.65 483.2 12.74 482.13 12.29C481.06 11.84 479.65 11.62 477.89 11.62H472.17V19.07H478.07C479.73 19.07 481.08 18.7 482.15 17.97C483.21 17.24 483.74 16.25 483.74 15.01H483.73Z" fill="white"/>
<path d="M524.11 40.65H499.01V4.5H507.42V33.23H524.11V40.66V40.65Z" fill="white"/>
<path d="M563.77 21.42C563.77 24.18 563.31 26.76 562.4 29.15C561.48 31.54 560.15 33.59 558.39 35.3C556.63 37.01 554.47 38.33 551.91 39.26C549.35 40.19 546.5 40.66 543.36 40.66H530.39V4.51001H543.95C547.75 4.51001 550.76 4.84001 552.99 5.51001C555.22 6.18001 557.21 7.38 558.95 9.12C560.18 10.35 561.28 11.99 562.28 14.05C563.27 16.11 563.77 18.57 563.77 21.44V21.42ZM554.81 21.99C554.81 20.63 554.64 19.36 554.29 18.19C553.95 17.02 553.38 15.93 552.58 14.94C551.79 13.95 550.7 13.15 549.32 12.56C547.94 11.97 546.25 11.67 544.25 11.67H538.79V33.51H542.46C544.41 33.51 546.15 33.26 547.69 32.75C549.23 32.24 550.52 31.5 551.58 30.52C552.64 29.55 553.44 28.34 553.99 26.9C554.53 25.46 554.8 23.83 554.8 22L554.81 21.99Z" fill="white"/>
<path d="M597.11 28.98C597.11 31.27 596.43 33.36 595.07 35.24C593.71 37.12 591.85 38.59 589.49 39.65C587.14 40.71 584.52 41.24 581.64 41.24C579.4 41.24 577.24 40.91 575.17 40.26C573.1 39.6 571.08 38.64 569.11 37.36V28.35C571.51 30.39 573.75 31.8 575.84 32.58C577.93 33.37 579.83 33.76 581.53 33.76C582.53 33.76 583.54 33.58 584.56 33.23C585.58 32.88 586.42 32.35 587.1 31.65C587.77 30.95 588.11 30.14 588.11 29.2C588.11 28.11 587.56 27.25 586.47 26.61C585.37 25.97 583.62 25.42 581.2 24.95C579.84 24.66 578.58 24.34 577.42 24.01C576.26 23.67 575.03 23.13 573.71 22.38C572.39 21.63 571.29 20.63 570.42 19.37C569.55 18.11 569.11 16.58 569.11 14.79C569.11 13 569.51 11.46 570.31 10.07C571.11 8.68001 572.19 7.54001 573.56 6.64001C574.92 5.74001 576.45 5.06999 578.14 4.60999C579.83 4.14999 581.61 3.91998 583.47 3.91998C585.66 3.91998 587.64 4.20002 589.4 4.77002C591.16 5.34002 592.99 6.09999 594.89 7.04999V16C591.1 12.93 587.49 11.39 584.07 11.39C582.41 11.39 581 11.7 579.83 12.33C578.66 12.96 578.07 13.79 578.07 14.83C578.07 15.52 578.35 16.08 578.92 16.51C579.73 17.13 581.96 17.84 585.6 18.63L586.51 18.84C587.39 19.03 588.41 19.32 589.56 19.72C590.72 20.12 591.85 20.66 592.98 21.36C594.1 22.06 595.07 23.05 595.89 24.32C596.71 25.6 597.12 27.14 597.12 28.95L597.11 28.98Z" fill="white"/>
<path d="M613.73 38.32C613.73 40.55 613.22 42.99 612.19 45.67C611.16 48.34 610.02 50.8 608.76 53.05H605.42C606.11 51.1 606.71 49.24 607.21 47.47C607.71 45.7 608.03 43.94 608.17 42.18C607.1 41.73 606.22 41.17 605.52 40.48C604.82 39.8 604.47 38.74 604.47 37.31C604.47 35.88 604.92 34.67 605.82 33.8C606.72 32.93 607.77 32.49 608.98 32.49C609.69 32.49 610.35 32.64 610.96 32.94C611.57 33.24 612.08 33.66 612.49 34.2C612.9 34.74 613.21 35.34 613.42 36.01C613.63 36.68 613.74 37.45 613.74 38.31L613.73 38.32Z" fill="white"/>
<path d="M299.34 91.42C299.34 94.18 298.88 96.76 297.97 99.15C297.05 101.54 295.72 103.59 293.96 105.3C292.2 107.01 290.04 108.33 287.48 109.26C284.92 110.19 282.07 110.66 278.93 110.66H265.96V74.51H279.52C283.32 74.51 286.33 74.84 288.56 75.51C290.79 76.18 292.78 77.38 294.52 79.12C295.75 80.35 296.85 81.99 297.85 84.05C298.84 86.11 299.34 88.57 299.34 91.44V91.42ZM290.39 91.99C290.39 90.63 290.22 89.36 289.87 88.19C289.53 87.02 288.96 85.93 288.16 84.94C287.37 83.95 286.28 83.15 284.9 82.56C283.52 81.97 281.83 81.67 279.83 81.67H274.37V103.51H278.04C279.99 103.51 281.73 103.26 283.27 102.75C284.81 102.24 286.1 101.5 287.16 100.52C288.22 99.55 289.02 98.34 289.57 96.9C290.11 95.46 290.38 93.82 290.38 92L290.39 91.99Z" fill="white"/>
<path d="M331.62 110.65H306.13V74.5H331.62V81.93H314.54V88.3H330.77V95.44H314.54V103.23H331.62V110.66V110.65Z" fill="white"/>
<path d="M364.27 110.65H339.17V74.5H347.58V103.22H364.27V110.65Z" fill="white"/>
<path d="M379.11 110.65H370.54V74.5H379.11V110.65Z" fill="white"/>
<path d="M418.97 74.5L405.72 110.65H397.02L383.92 74.5H393.31L401.26 100.95H401.36L409.48 74.5H418.95H418.97Z" fill="white"/>
<path d="M449.34 110.65H423.85V74.5H449.34V81.93H432.26V88.3H448.49V95.44H432.26V103.23H449.34V110.66V110.65Z" fill="white"/>
<path d="M486.48 110.65H477.01L474.47 102.55C473.83 100.57 473.13 99.12 472.37 98.22C471.61 97.31 470.74 96.74 469.76 96.5C468.78 96.26 467.28 96.12 465.28 96.09V110.66H456.87V74.45H470.74C473.9 74.45 476.47 74.73 478.45 75.28C480.43 75.83 482.01 76.69 483.19 77.84C484.83 79.43 485.65 81.32 485.65 83.51C485.65 86.25 484.43 88.63 481.98 90.63C481 91.41 480.05 91.98 479.15 92.35C478.24 92.72 477.11 93.06 475.75 93.37V93.47C477.41 93.87 478.83 94.56 480.02 95.55C481.21 96.54 482.2 98.22 483 100.58L486.49 110.65H486.48ZM476.86 85C476.86 83.64 476.33 82.73 475.26 82.28C474.19 81.83 472.78 81.61 471.02 81.61H465.3V89.06H471.2C472.86 89.06 474.21 88.69 475.28 87.96C476.34 87.23 476.87 86.24 476.87 85H476.86Z" fill="white"/>
<path d="M500.7 110.65H492.13V74.5H500.7V110.65Z" fill="white"/>
<path d="M540.26 110.65H531.88L517.67 88.39H517.57V110.65H509.16V74.5H517.57L531.78 96.88H531.88V74.5H540.26V110.65Z" fill="white"/>
<path d="M579.52 110.65H571.91L571.06 107.16C570.01 108.3 568.81 109.27 567.48 110.06C566.14 110.85 564.46 111.25 562.42 111.25C559.9 111.25 557.48 110.52 555.15 109.05C552.82 107.58 550.93 105.46 549.48 102.68C548.03 99.9 547.31 96.71 547.31 93.1C547.31 90.41 547.75 87.88 548.64 85.5C549.53 83.13 550.79 81.09 552.43 79.38C554.07 77.67 556.05 76.34 558.38 75.37C560.71 74.4 563.25 73.92 566.01 73.92C568.46 73.92 570.63 74.22 572.53 74.83C574.43 75.43 576.41 76.26 578.48 77.31V85.95C577.76 85.42 576.99 84.89 576.19 84.38C575.39 83.87 574.5 83.39 573.52 82.93C572.54 82.47 571.49 82.1 570.36 81.82C569.23 81.54 568.08 81.39 566.9 81.39C565.14 81.39 563.57 81.71 562.19 82.35C560.81 82.99 559.67 83.85 558.77 84.92C557.87 86 557.2 87.22 556.75 88.59C556.3 89.96 556.08 91.39 556.08 92.87C556.08 94.8 556.43 96.6 557.14 98.25C557.85 99.91 558.86 101.24 560.17 102.24C561.48 103.24 562.96 103.74 564.62 103.74C566.28 103.74 567.67 103.23 568.97 102.2C570.26 101.17 570.95 99.6 571.04 97.48H562.76V90.6H579.5V110.63L579.52 110.65Z" fill="white"/>
<path d="M638.26 74.5L625.01 110.65H616.31L603.21 74.5H612.6L620.55 100.95H620.65L628.77 74.5H638.24H638.26Z" fill="white"/>
<path d="M675.62 110.65H666.07L663.84 103.27H652.3L649.97 110.65H640.68L653.88 74.5H662.52L675.61 110.65H675.62ZM661.85 96.44L658.18 84.25H658.08L654.38 96.44H661.86H661.85Z" fill="white"/>
<path d="M706.76 110.65H681.66V74.5H690.07V103.22H706.76V110.65Z" fill="white"/>
<path d="M742.64 96.24C742.64 99.78 741.97 102.67 740.62 104.91C739.27 107.15 737.46 108.77 735.17 109.76C732.88 110.75 730.34 111.25 727.55 111.25C724.76 111.25 722.43 110.9 720.78 110.19C719.13 109.48 717.73 108.61 716.57 107.58C715.41 106.53 714.53 105.38 713.93 104.13C713.33 102.88 712.91 101.44 712.68 99.81C712.45 98.18 712.33 96.13 712.33 93.66V74.51H720.77V95.65C720.77 101.27 723 104.09 727.45 104.09C729.76 104.09 731.47 103.42 732.57 102.07C733.67 100.72 734.23 99.12 734.23 97.26V74.51H742.64V96.25V96.24Z" fill="white"/>
<path d="M775.93 110.65H750.44V74.5H775.93V81.93H758.85V88.3H775.08V95.44H758.85V103.23H775.93V110.66V110.65Z" fill="white"/>
<path d="M792.58 106.61C792.58 107.44 792.37 108.21 791.96 108.93C791.55 109.65 790.98 110.21 790.27 110.63C789.55 111.04 788.79 111.25 787.98 111.25C787.17 111.25 786.43 111.04 785.72 110.63C785 110.22 784.44 109.65 784.04 108.93C783.64 108.21 783.43 107.44 783.43 106.61C783.43 105.78 783.64 104.97 784.06 104.28C784.48 103.59 785.04 103.05 785.74 102.65C786.44 102.25 787.17 102.05 787.93 102.05C788.85 102.05 789.66 102.27 790.36 102.7C791.07 103.13 791.61 103.7 792 104.41C792.39 105.12 792.58 105.85 792.58 106.61Z" fill="white"/>
</g>
<defs>
<filter id="filter0_d_1_14" x="0.820007" y="0.919983" width="808.76" height="127.33" filterUnits="userSpaceOnUse" color-interpolation-filters="sRGB">
<feFlood flood-opacity="0" result="BackgroundImageFix"/>
<feColorMatrix in="SourceAlpha" type="matrix" values="0 0 0 0 0 0 0 0 0 0 0 0 0 0 0 0 0 0 127 0" result="hardAlpha"/>
<feOffset dx="7" dy="7"/>
<feGaussianBlur stdDeviation="5"/>
<feColorMatrix type="matrix" values="0 0 0 0 0.0156863 0 0 0 0 0 0 0 0 0 0 0 0 0 0.75 0"/>
<feBlend mode="normal" in2="BackgroundImageFix" result="effect1_dropShadow_1_14"/>
<feBlend mode="normal" in="SourceGraphic" in2="effect1_dropShadow_1_14" result="shape"/>
</filter>
</defs>
</svg>
