<svg width="444" height="327" viewBox="0 0 444 327" fill="none" xmlns="http://www.w3.org/2000/svg">
<g filter="url(#filter0_d_1_851)">
<path d="M59.11 308V261.16L38.92 291.81H38.51L18.52 261.47V308H3.04004V236.25H20.05L38.91 266.59L57.77 236.25H74.78V308H59.1H59.11Z" fill="white"/>
<path d="M112.52 308V236.25H166.64V250.29H128.21V264.84H162.03V278.88H128.21V293.95H167.16V307.99H112.53L112.52 308Z" fill="white"/>
<path d="M201.69 308V236.25H217.47V293.65H253.24V308H201.69Z" fill="white"/>
<path d="M285.64 308V236.25H339.76V250.29H301.33V264.84H335.15V278.88H301.33V293.95H340.28V307.99H285.65L285.64 308Z" fill="white"/>
<path d="M400.33 309.02C389.47 309.02 378.5 305.23 369.89 297.54L379.22 286.37C385.68 291.7 392.44 295.08 400.64 295.08C407.1 295.08 410.99 292.52 410.99 288.32V288.11C410.99 284.11 408.53 282.06 396.54 278.99C382.09 275.3 372.76 271.3 372.76 257.06V256.85C372.76 243.83 383.21 235.22 397.87 235.22C408.32 235.22 417.24 238.5 424.52 244.34L416.32 256.23C409.97 251.82 403.71 249.16 397.67 249.16C391.63 249.16 388.45 251.93 388.45 255.41V255.62C388.45 260.33 391.52 261.87 403.93 265.05C418.48 268.84 426.68 274.07 426.68 286.57V286.78C426.68 301.03 415.82 309.02 400.34 309.02H400.33Z" fill="white"/>
<path fill-rule="evenodd" clip-rule="evenodd" d="M165.05 80.35C170.15 73.58 175.76 67.27 181.88 61.43C183.92 59.48 186.38 57.23 189.25 54.68C192.12 52.13 195.16 49.95 198.36 48.14C201.56 46.33 204.83 45.17 208.17 44.66C211.51 44.15 214.71 44.87 217.77 46.82C220.27 48.49 221.94 50.48 222.78 52.8C223.61 55.12 223.94 57.58 223.75 60.17C223.56 62.77 223.01 65.34 222.08 67.89C221.15 70.44 220.18 72.78 219.16 74.92C216.56 80.3 213.69 85.33 210.53 90.02C207.38 94.71 204.55 99.55 202.04 104.56C204.45 101.5 206.63 98.69 208.58 96.14C210.53 93.59 212.36 91.22 214.08 89.04C215.8 86.86 217.42 84.82 218.95 82.92C220.48 81.02 222.03 79.14 223.61 77.29C227.13 72.75 230.66 68.5 234.18 64.56C237.71 60.62 241.28 57.19 244.89 54.26C248.11 51.66 251.39 49.58 254.72 47.98C247.14 43.64 239.43 39.24 231.46 34.63C217.39 26.58 204.12 18.82 193.41 13.08C182.1 7.73 169.65 -0.830001 161.78 6.86C154.65 17.87 156.73 34.2 155.93 47.56C155.88 61.39 155.85 77.84 155.85 94.08C158.66 89.35 161.7 84.76 165.03 80.35H165.05Z" fill="url(#paint0_linear_1_851)"/>
<path fill-rule="evenodd" clip-rule="evenodd" d="M237.12 142.96C232.95 142.5 229.56 140.99 226.96 138.44C224.36 135.89 222.9 132.46 222.58 128.14C222.26 123.82 223.16 118.68 225.29 112.7C227.42 106.72 231.13 100.06 236.42 92.74C237.9 90.61 239.57 88.24 241.43 85.65C243.28 83.05 245 80.73 246.58 78.69C248.34 76.28 249.55 74.45 250.2 73.19C250.85 71.94 251.01 71.17 250.69 70.9C250.37 70.63 249.6 70.85 248.4 71.6C247.19 72.34 245.71 73.5 243.95 75.08C240.8 77.77 237.71 80.76 234.7 84.05C231.68 87.34 228.76 90.73 225.94 94.21C223.11 97.69 220.35 101.17 217.66 104.64C214.97 108.12 212.37 111.39 209.87 114.45C207.46 117.42 205 120.64 202.5 124.12C200 127.6 197.17 130.45 194.01 132.68C192.06 134.07 190.05 134.72 187.96 134.63C185.87 134.54 183.9 133.75 182.05 132.26C180.38 130.87 179.17 129.29 178.43 127.53C177.69 125.77 177.29 123.89 177.25 121.9C177.2 119.91 177.41 117.91 177.87 115.92C178.33 113.93 178.89 112 179.54 110.15C181.12 105.61 183.3 100.85 186.08 95.89C188.86 90.93 191.6 86.41 194.29 82.33C195.86 79.92 197.33 77.53 198.67 75.16C200.01 72.79 200.83 71.06 201.1 69.94C201.37 68.82 200.94 68.67 199.78 69.45C198.62 70.24 196.32 72.49 192.89 76.2C186.67 82.97 180.79 90.32 175.22 98.25C169.65 106.18 164.88 114.09 160.89 121.97C159.87 123.92 158.82 126.17 157.76 128.72C156.69 131.27 156.25 133.71 156.44 136.02C156.49 136.9 156.38 137.71 156.15 138.44C156.46 150.83 155.36 165.38 162.38 174.65C170.91 181.32 182.96 172.73 195.21 166.86C206.97 160.46 221.64 151.88 236.87 143.17C236.98 143.1 237.1 143.04 237.21 142.97C237.18 142.97 237.15 142.97 237.12 142.97V142.96Z" fill="url(#paint1_linear_1_851)"/>
<path fill-rule="evenodd" clip-rule="evenodd" d="M288.59 67.61C285.18 65.58 281.68 63.54 278.18 61.5C278.07 61.94 278.01 62.38 277.88 62.82C277.23 64.95 276.4 67.04 275.38 69.08C274.36 71.12 273.25 73.11 272.04 75.06C270.83 77.01 269.72 78.86 268.7 80.63C268.23 81.28 267.12 82.95 265.36 85.64C263.6 88.33 261.56 91.48 259.24 95.1C256.92 98.72 254.53 102.5 252.07 106.44C249.61 110.38 247.5 113.98 245.74 117.22C244.16 120.1 243.26 122.14 243.03 123.34C242.8 124.55 243.01 125.17 243.66 125.22C244.31 125.27 245.26 124.87 246.51 124.04C247.76 123.21 249.13 122.21 250.61 121.05C252.09 119.89 253.51 118.68 254.85 117.43C256.19 116.18 257.28 115.18 258.12 114.44C260.53 112.21 262.76 109.9 264.8 107.48C266.84 105.07 269.02 102.7 271.34 100.39C272.45 99.37 273.45 98.86 274.33 98.86C275.21 98.86 275.88 99.23 276.35 99.97C276.81 100.71 276.98 101.76 276.84 103.1C276.7 104.45 276.12 105.95 275.1 107.62C273.71 109.85 272.22 112.31 270.65 114.99C269.07 117.68 267.38 120.39 265.57 123.13C264.17 125.24 262.67 127.27 261.1 129.24C269.42 124.46 277.35 119.9 284.33 115.81C302.24 105.23 313.42 97.71 313.39 90.57V90.32C313.39 83.74 304.05 76.92 288.6 67.61H288.59Z" fill="url(#paint2_linear_1_851)"/>
</g>
<defs>
<filter id="filter0_d_1_851" x="0.0400391" y="0.794281" width="443.64" height="325.226" filterUnits="userSpaceOnUse" color-interpolation-filters="sRGB">
<feFlood flood-opacity="0" result="BackgroundImageFix"/>
<feColorMatrix in="SourceAlpha" type="matrix" values="0 0 0 0 0 0 0 0 0 0 0 0 0 0 0 0 0 0 127 0" result="hardAlpha"/>
<feOffset dx="7" dy="7"/>
<feGaussianBlur stdDeviation="5"/>
<feColorMatrix type="matrix" values="0 0 0 0 0.0156863 0 0 0 0 0 0 0 0 0 0 0 0 0 0.75 0"/>
<feBlend mode="normal" in2="BackgroundImageFix" result="effect1_dropShadow_1_851"/>
<feBlend mode="normal" in="SourceGraphic" in2="effect1_dropShadow_1_851" result="shape"/>
</filter>
<linearGradient id="paint0_linear_1_851" x1="155.87" y1="54.18" x2="254.74" y2="54.18" gradientUnits="userSpaceOnUse">
<stop stop-color="#78CBE8" stop-opacity="0.71"/>
<stop offset="1" stop-color="#17A196"/>
</linearGradient>
<linearGradient id="paint1_linear_1_851" x1="156.14" y1="123" x2="250.85" y2="123" gradientUnits="userSpaceOnUse">
<stop stop-color="#78CBE8" stop-opacity="0.71"/>
<stop offset="1" stop-color="#17A196"/>
</linearGradient>
<linearGradient id="paint2_linear_1_851" x1="242.94" y1="95.37" x2="313.39" y2="95.37" gradientUnits="userSpaceOnUse">
<stop stop-color="#78CBE8" stop-opacity="0.71"/>
<stop offset="1" stop-color="#17A196"/>
</linearGradient>
</defs>
</svg>
