<svg width="39" height="39" viewBox="0 0 39 39" fill="none" xmlns="http://www.w3.org/2000/svg">
<path d="M17.83 0.560092C33 -0.559908 43.49 15.5801 36.12 29.0201C28.51 42.8801 8.14 41.98 1.77 27.51C-3.56 15.41 4.72 1.53009 17.83 0.560092ZM11.7 7.08011C10.71 7.24011 7.83 8.88 7.28 9.72C6.73 10.56 7.08 12.19 7.25 13.21C8.62 21.59 14.08 29.5001 21.5 33.6101C23.57 34.7601 23.86 34.9401 25.89 33.5601C26.66 33.0401 28.56 31.5501 28.52 30.5901C28.49 30.0001 27.74 29.39 27.31 28.98C26.36 28.06 24.67 26.47 23.65 25.72C22.11 24.59 20.24 26.27 19.46 25.92C19.32 25.86 17.87 24.3602 17.66 24.1202C16.54 22.8502 15.38 21.0901 14.6 19.5901C14.36 19.1201 13.65 17.8102 13.6 17.3702C13.54 16.7102 14.99 15.48 15.23 14.75C15.36 14.34 15.38 13.9701 15.3 13.5501C14.96 11.7401 13.49 9.42007 13.05 7.54007C12.74 7.04007 12.24 7.00012 11.7 7.09012V7.08011ZM27.65 11.7701C27.03 11.0801 25.07 9.38014 24.25 9.11014C23.53 8.88014 23 9.40992 23.24 10.1299C23.37 10.5099 24.8 11.2401 25.24 11.5901C26.89 12.9001 28.35 15.0501 28.97 17.0501C29.17 17.6901 29.32 19.52 29.93 19.69C31.59 20.17 30.59 17.14 30.37 16.44C29.84 14.79 28.81 13.05 27.65 11.76V11.7701ZM25.41 20.22C26.11 19.52 24.73 16.7801 24.22 16.0701C23.74 15.4101 20.72 12.28 20.55 14.47C20.5 15.05 21.49 15.4401 21.85 15.7801C22.63 16.5001 23.29 17.2 23.68 18.21C24.06 19.21 23.9 20.93 25.41 20.21V20.22Z" fill="white"/>
</svg>
