<svg width="39" height="39" viewBox="0 0 39 39" fill="none" xmlns="http://www.w3.org/2000/svg">
<path d="M20.52 0.280029L22.49 0.530029C30.67 1.88003 37.28 8.66992 38.36 16.9199C38.42 17.3699 38.41 17.87 38.52 18.3C38.49 19.09 38.57 19.91 38.52 20.7C37.54 37.5099 16.47 44.9701 5.08 32.3701C-5.68 20.4701 2.25 1.22004 18.13 0.290039H20.53L20.52 0.280029ZM8.88 10.8C7.81 11.04 7.04999 11.9 6.94999 13V25.98C7.04999 27.11 7.93 28.1 9.08 28.2C16.07 28.13 23.09 28.3301 30.06 28.1001C31.01 27.7601 31.62 26.9099 31.7 25.9099C31.45 21.7399 32.02 17.2001 31.7 13.0701C31.61 11.8801 30.77 10.91 29.56 10.78L8.88 10.8Z" fill="white"/>
<path d="M29.67 13.78V25.97C29.67 25.97 29.49 26.1499 29.44 26.1899H9.2C9.2 26.1899 8.97 25.99 8.97 25.97V13.78L19.03 21.6799C19.28 21.7799 19.53 21.7401 19.76 21.6101L29.67 13.78Z" fill="white"/>
<path d="M27.72 12.73L19.34 19.3999L10.92 12.73H27.72Z" fill="white"/>
</svg>
