<svg width="52" height="58" viewBox="0 0 52 58" fill="none" xmlns="http://www.w3.org/2000/svg">
<path fill-rule="evenodd" clip-rule="evenodd" d="M3.19002 25.81C4.86002 23.59 6.70004 21.52 8.71004 19.6C9.38004 18.96 10.19 18.22 11.13 17.39C12.07 16.55 13.07 15.84 14.12 15.25C15.17 14.66 16.24 14.28 17.34 14.11C18.44 13.94 19.49 14.18 20.49 14.82C21.31 15.37 21.86 16.02 22.13 16.78C22.4 17.54 22.51 18.35 22.45 19.2C22.39 20.05 22.21 20.9 21.9 21.73C21.6 22.57 21.28 23.34 20.94 24.03C20.09 25.8 19.14 27.45 18.11 28.98C17.08 30.52 16.15 32.11 15.33 33.75C16.12 32.75 16.84 31.83 17.47 30.99C18.11 30.15 18.71 29.38 19.27 28.66C19.83 27.95 20.37 27.28 20.87 26.65C21.37 26.03 21.88 25.41 22.4 24.8C23.56 23.31 24.71 21.92 25.87 20.62C27.03 19.33 28.2 18.2 29.38 17.24C30.44 16.39 31.51 15.71 32.6 15.18C30.11 13.76 27.58 12.31 24.97 10.8C20.35 8.16 16 5.61 12.49 3.73C8.78 1.98 4.69 -0.830001 2.11 1.69C-0.230001 5.3 0.450016 10.66 0.190016 15.04C0.170016 19.58 0.159996 24.97 0.169996 30.3C1.09 28.75 2.09001 27.24 3.18001 25.8L3.19002 25.81Z" fill="url(#paint0_linear_1_48)"/>
<path fill-rule="evenodd" clip-rule="evenodd" d="M26.84 46.35C25.47 46.2 24.36 45.7 23.51 44.87C22.66 44.03 22.18 42.91 22.07 41.49C21.96 40.08 22.26 38.39 22.96 36.42C23.66 34.46 24.88 32.27 26.61 29.87C27.1 29.17 27.64 28.39 28.25 27.54C28.86 26.69 29.42 25.93 29.94 25.26C30.52 24.47 30.91 23.87 31.13 23.46C31.34 23.05 31.4 22.8 31.29 22.71C31.18 22.62 30.93 22.69 30.54 22.94C30.14 23.18 29.66 23.56 29.08 24.08C28.05 24.96 27.03 25.94 26.05 27.02C25.06 28.1 24.1 29.21 23.17 30.35C22.24 31.49 21.34 32.63 20.45 33.77C19.56 34.91 18.72 35.98 17.89 36.99C17.1 37.96 16.29 39.02 15.47 40.16C14.65 41.3 13.72 42.24 12.69 42.97C12.05 43.43 11.39 43.64 10.7 43.61C10.02 43.58 9.37001 43.32 8.76001 42.83C8.21001 42.37 7.82001 41.86 7.57001 41.28C7.33001 40.7 7.19999 40.09 7.17999 39.43C7.15999 38.78 7.23001 38.12 7.39001 37.47C7.54001 36.82 7.72 36.18 7.94 35.58C8.46 34.09 9.17002 32.53 10.08 30.9C10.99 29.27 11.89 27.79 12.77 26.45C13.29 25.66 13.77 24.88 14.21 24.1C14.65 23.32 14.92 22.75 15.01 22.39C15.1 22.03 14.96 21.97 14.58 22.23C14.2 22.49 13.45 23.23 12.32 24.44C10.28 26.66 8.35002 29.07 6.52002 31.67C4.69002 34.27 3.13001 36.87 1.82001 39.45C1.49001 40.09 1.13998 40.83 0.789978 41.66C0.439978 42.5 0.299985 43.3 0.359985 44.06C0.379985 44.35 0.34001 44.61 0.26001 44.86C0.36001 48.93 -2.38419e-06 53.7 2.31 56.74C5.11 58.93 9.06002 56.11 13.08 54.18C16.94 52.08 21.75 49.26 26.75 46.41C26.79 46.39 26.82 46.37 26.86 46.35C26.86 46.35 26.84 46.35 26.83 46.35H26.84Z" fill="url(#paint1_linear_1_48)"/>
<path fill-rule="evenodd" clip-rule="evenodd" d="M43.7199 21.63C42.5999 20.97 41.45 20.3 40.31 19.63C40.28 19.77 40.25 19.92 40.21 20.06C40 20.76 39.72 21.44 39.39 22.11C39.06 22.78 38.69 23.43 38.3 24.07C37.9 24.71 37.54 25.32 37.2 25.9C37.05 26.11 36.68 26.66 36.1 27.54C35.52 28.42 34.85 29.46 34.09 30.64C33.33 31.83 32.55 33.07 31.74 34.36C30.93 35.65 30.2399 36.83 29.6599 37.9C29.1399 38.84 28.85 39.51 28.77 39.91C28.69 40.31 28.77 40.51 28.98 40.53C29.19 40.55 29.5 40.42 29.92 40.14C30.34 39.86 30.78 39.54 31.27 39.16C31.76 38.78 32.2199 38.38 32.6599 37.97C33.0999 37.56 33.46 37.23 33.73 36.99C34.52 36.26 35.25 35.5 35.92 34.71C36.59 33.92 37.3 33.14 38.07 32.38C38.44 32.05 38.76 31.88 39.05 31.88C39.34 31.88 39.56 32 39.71 32.25C39.86 32.49 39.92 32.84 39.87 33.28C39.82 33.72 39.63 34.22 39.3 34.76C38.84 35.49 38.36 36.3 37.84 37.18C37.32 38.06 36.77 38.95 36.17 39.85C35.71 40.54 35.22 41.21 34.7 41.86C37.43 40.29 40.03 38.8 42.32 37.45C48.2 33.98 51.86 31.51 51.85 29.17V29.09C51.85 26.93 48.7899 24.69 43.7199 21.64V21.63Z" fill="url(#paint2_linear_1_48)"/>
<defs>
<linearGradient id="paint0_linear_1_48" x1="0.18" y1="17.22" x2="32.62" y2="17.22" gradientUnits="userSpaceOnUse">
<stop stop-color="#78CBE8" stop-opacity="0.71"/>
<stop offset="1" stop-color="#17A196"/>
</linearGradient>
<linearGradient id="paint1_linear_1_48" x1="0.27001" y1="39.8" x2="31.34" y2="39.8" gradientUnits="userSpaceOnUse">
<stop stop-color="#78CBE8" stop-opacity="0.71"/>
<stop offset="1" stop-color="#17A196"/>
</linearGradient>
<linearGradient id="paint2_linear_1_48" x1="28.75" y1="30.74" x2="51.86" y2="30.74" gradientUnits="userSpaceOnUse">
<stop stop-color="#78CBE8" stop-opacity="0.71"/>
<stop offset="1" stop-color="#17A196"/>
</linearGradient>
</defs>
</svg>
