<svg width="157" height="171" viewBox="0 0 157 171" fill="none" xmlns="http://www.w3.org/2000/svg">
<g opacity="0.6" filter="url(#filter0_d_1_1106)">
<path fill-rule="evenodd" clip-rule="evenodd" d="M11.3 70.0499C15.71 64.1999 20.56 58.7498 25.84 53.6998C27.6 52.0198 29.73 50.08 32.21 47.87C34.69 45.67 37.32 43.7799 40.08 42.2199C42.84 40.6599 45.67 39.6599 48.55 39.2099C51.44 38.7699 54.2 39.39 56.84 41.07C59 42.51 60.45 44.2399 61.17 46.2399C61.89 48.2399 62.17 50.37 62.01 52.61C61.85 54.85 61.37 57.0799 60.57 59.2799C59.77 61.4799 58.93 63.51 58.05 65.35C55.81 70 53.32 74.3498 50.6 78.3898C47.87 82.4398 45.43 86.6198 43.27 90.9498C45.35 88.3098 47.24 85.8798 48.92 83.6798C50.6 81.4798 52.19 79.4299 53.67 77.5499C55.15 75.6699 56.56 73.8999 57.88 72.2599C59.2 70.6199 60.54 68.9998 61.91 67.3898C64.95 63.4598 68 59.7998 71.04 56.3898C74.09 52.9898 77.17 50.0199 80.3 47.4899C83.08 45.2399 85.91 43.4499 88.79 42.0599C82.24 38.3099 75.58 34.4999 68.7 30.5299C56.54 23.5799 45.08 16.8698 35.82 11.9098C26.04 7.2898 15.29 -0.110083 8.48999 6.52992C2.32999 16.0399 4.13 30.1498 3.44 41.6998C3.39 53.6498 3.37 67.8598 3.37 81.8898C5.8 77.7998 8.42999 73.8399 11.3 70.0299V70.0499Z" fill="white"/>
<path fill-rule="evenodd" clip-rule="evenodd" d="M73.56 124.14C69.96 123.74 67.03 122.44 64.79 120.23C62.55 118.03 61.28 115.06 61 111.33C60.72 107.6 61.5 103.16 63.34 97.9901C65.18 92.8201 68.39 87.0701 72.96 80.7401C74.24 78.9001 75.68 76.8502 77.29 74.6102C78.89 72.3702 80.37 70.3602 81.74 68.6002C83.26 66.5202 84.31 64.9302 84.87 63.8502C85.43 62.7702 85.57 62.1102 85.29 61.8702C85.01 61.6302 84.35 61.8301 83.31 62.4701C82.27 63.1101 80.99 64.1101 79.46 65.4701C76.74 67.8001 74.07 70.3801 71.47 73.2201C68.86 76.0701 66.34 78.9901 63.9 81.9901C61.46 84.9901 59.07 88.0001 56.75 91.0101C54.43 94.0101 52.18 96.8401 50.02 99.4801C47.94 102.05 45.81 104.83 43.65 107.83C41.49 110.83 39.04 113.3 36.32 115.22C34.64 116.42 32.89 116.98 31.09 116.9C29.29 116.82 27.58 116.14 25.98 114.86C24.54 113.66 23.5 112.3 22.85 110.77C22.21 109.25 21.87 107.63 21.83 105.9C21.79 104.18 21.97 102.46 22.37 100.73C22.77 99.0101 23.25 97.3501 23.81 95.7401C25.17 91.8101 27.06 87.71 29.46 83.42C31.86 79.13 34.23 75.2301 36.55 71.7001C37.91 69.6201 39.17 67.5501 40.34 65.5101C41.5 63.4701 42.2 61.9601 42.44 61.0001C42.68 60.0401 42.3 59.9002 41.3 60.5802C40.3 61.2602 38.31 63.21 35.35 66.41C29.98 72.26 24.89 78.6101 20.08 85.4601C15.27 92.3101 11.14 99.1401 7.70001 105.95C6.82001 107.63 5.92 109.58 5 111.78C4.08 113.99 3.69999 116.09 3.85999 118.09C3.89999 118.85 3.80999 119.55 3.60999 120.18C3.86999 130.89 2.93 143.45 9 151.47C16.37 157.24 26.78 149.82 37.37 144.74C47.53 139.21 60.21 131.79 73.36 124.28C73.46 124.22 73.56 124.17 73.65 124.11C73.62 124.11 73.6 124.11 73.57 124.11L73.56 124.14Z" fill="white"/>
<path fill-rule="evenodd" clip-rule="evenodd" d="M118.04 59.04C115.1 57.29 112.07 55.53 109.05 53.76C108.96 54.14 108.9 54.5199 108.79 54.8999C108.23 56.7399 107.51 58.5501 106.63 60.3101C105.75 62.0701 104.79 63.8 103.75 65.48C102.71 67.16 101.75 68.77 100.86 70.29C100.46 70.85 99.4999 72.2901 97.9699 74.6201C96.4499 76.9401 94.68 79.67 92.68 82.79C90.68 85.92 88.61 89.1801 86.49 92.5901C84.37 96.0001 82.54 99.0999 81.02 101.9C79.66 104.38 78.87 106.15 78.68 107.19C78.48 108.23 78.6599 108.77 79.2199 108.81C79.7799 108.85 80.6 108.51 81.68 107.79C82.76 107.07 83.94 106.21 85.23 105.21C86.51 104.21 87.73 103.17 88.9 102.08C90.06 101 90.9999 100.14 91.7199 99.5C93.7999 97.58 95.73 95.57 97.49 93.49C99.25 91.41 101.14 89.3601 103.14 87.3601C104.1 86.4801 104.96 86.04 105.72 86.04C106.48 86.04 107.06 86.36 107.46 87C107.86 87.64 108 88.54 107.88 89.7C107.76 90.86 107.26 92.1601 106.38 93.6101C105.18 95.5301 103.9 97.66 102.53 99.98C101.17 102.3 99.71 104.65 98.14 107.01C96.93 108.84 95.63 110.59 94.28 112.29C101.47 108.16 108.32 104.22 114.35 100.68C129.82 91.5399 139.48 85.0501 139.46 78.8701V78.6499C139.46 72.9699 131.39 67.07 118.04 59.03V59.04Z" fill="white"/>
</g>
<defs>
<filter id="filter0_d_1_1106" x="0.369995" y="0.884521" width="156.09" height="169.684" filterUnits="userSpaceOnUse" color-interpolation-filters="sRGB">
<feFlood flood-opacity="0" result="BackgroundImageFix"/>
<feColorMatrix in="SourceAlpha" type="matrix" values="0 0 0 0 0 0 0 0 0 0 0 0 0 0 0 0 0 0 127 0" result="hardAlpha"/>
<feOffset dx="7" dy="7"/>
<feGaussianBlur stdDeviation="5"/>
<feColorMatrix type="matrix" values="0 0 0 0 0.0156863 0 0 0 0 0 0 0 0 0 0 0 0 0 0.5 0"/>
<feBlend mode="normal" in2="BackgroundImageFix" result="effect1_dropShadow_1_1106"/>
<feBlend mode="normal" in="SourceGraphic" in2="effect1_dropShadow_1_1106" result="shape"/>
</filter>
</defs>
</svg>
