<svg width="292" height="216" viewBox="0 0 292 216" fill="none" xmlns="http://www.w3.org/2000/svg">
<g filter="url(#filter0_d_1_902)">
<path d="M39.3101 198.27V168.29L26.39 187.9H26.13L13.34 168.48V198.26H3.43005V152.34H14.3199L26.39 171.76L38.46 152.34H49.35V198.26H39.3101V198.27Z" fill="#040000"/>
<path d="M73.49 198.27V152.35H108.13V161.34H83.53V170.66H105.18V179.65H83.53V189.29H108.46V198.28H73.5L73.49 198.27Z" fill="#040000"/>
<path d="M130.56 198.27V152.35H140.66V189.08H163.55V198.26H130.55L130.56 198.27Z" fill="#040000"/>
<path d="M184.29 198.27V152.35H218.92V161.34H194.32V170.66H215.97V179.65H194.32V189.29H219.25V198.28H184.29V198.27Z" fill="#040000"/>
<path d="M257.69 198.93C250.74 198.93 243.72 196.5 238.21 191.58L244.18 184.43C248.31 187.84 252.64 190.01 257.89 190.01C262.02 190.01 264.51 188.37 264.51 185.68V185.55C264.51 182.99 262.94 181.68 255.26 179.71C246.01 177.35 240.04 174.79 240.04 165.67V165.54C240.04 157.21 246.73 151.7 256.11 151.7C262.8 151.7 268.51 153.8 273.17 157.54L267.92 165.15C263.85 162.33 259.85 160.62 255.98 160.62C252.11 160.62 250.08 162.39 250.08 164.62V164.75C250.08 167.77 252.05 168.75 259.99 170.79C269.3 173.22 274.55 176.56 274.55 184.57V184.7C274.55 193.82 267.6 198.94 257.69 198.94V198.93Z" fill="#040000"/>
<path fill-rule="evenodd" clip-rule="evenodd" d="M107.12 52.57C110.38 48.24 113.98 44.1998 117.89 40.4598C119.19 39.2098 120.77 37.7698 122.61 36.1398C124.45 34.5098 126.39 33.1098 128.44 31.9598C130.49 30.7998 132.58 30.0599 134.72 29.7299C136.86 29.4099 138.91 29.86 140.86 31.11C142.46 32.18 143.53 33.4598 144.07 34.9398C144.6 36.4198 144.81 37.9998 144.69 39.6598C144.57 41.3198 144.21 42.97 143.62 44.6C143.03 46.23 142.4 47.73 141.75 49.1C140.09 52.54 138.25 55.7599 136.23 58.7599C134.21 61.7599 132.4 64.8599 130.8 68.0599C132.34 66.0999 133.74 64.3098 134.98 62.6698C136.23 61.0398 137.4 59.5198 138.5 58.1298C139.6 56.7398 140.64 55.4298 141.62 54.2098C142.6 52.9898 143.59 51.79 144.6 50.6C146.85 47.69 149.11 44.9798 151.37 42.4498C153.63 39.9298 155.91 37.73 158.23 35.86C160.29 34.2 162.39 32.87 164.52 31.84C159.67 29.07 154.73 26.2399 149.64 23.2999C140.64 18.1499 132.15 13.1799 125.29 9.5099C118.05 6.0899 110.08 0.609915 105.05 5.52992C100.49 12.5699 101.82 23.03 101.31 31.58C101.28 40.43 101.26 50.96 101.26 61.35C103.06 58.32 105.01 55.3899 107.14 52.5599L107.12 52.57Z" fill="url(#paint0_linear_1_902)"/>
<path fill-rule="evenodd" clip-rule="evenodd" d="M153.24 92.64C150.57 92.34 148.4 91.3801 146.74 89.7501C145.08 88.1201 144.14 85.92 143.94 83.16C143.73 80.4 144.31 77.1101 145.68 73.2801C147.05 69.4501 149.42 65.1901 152.8 60.5001C153.75 59.1401 154.82 57.62 156.01 55.96C157.2 54.3 158.29 52.8101 159.3 51.5101C160.43 49.9701 161.2 48.7901 161.62 47.9901C162.03 47.1901 162.14 46.7001 161.93 46.5201C161.72 46.3401 161.23 46.4901 160.46 46.9701C159.69 47.4501 158.74 48.19 157.61 49.2C155.59 50.92 153.62 52.84 151.69 54.94C149.76 57.05 147.89 59.21 146.08 61.44C144.27 63.67 142.5 65.8902 140.78 68.1202C139.06 70.3502 137.4 72.44 135.79 74.4C134.25 76.3 132.67 78.3602 131.07 80.5902C129.47 82.8202 127.66 84.6402 125.64 86.0702C124.39 86.9602 123.1 87.3802 121.77 87.3202C120.43 87.2602 119.17 86.7601 117.99 85.8101C116.92 84.9201 116.15 83.9101 115.67 82.7801C115.2 81.6501 114.94 80.45 114.91 79.17C114.88 77.89 115.01 76.6202 115.31 75.3402C115.61 74.0602 115.96 72.83 116.38 71.64C117.39 68.73 118.78 65.6901 120.56 62.5101C122.34 59.3401 124.09 56.4402 125.81 53.8302C126.82 52.2902 127.75 50.7601 128.61 49.2401C129.47 47.7301 129.99 46.61 130.17 45.9C130.35 45.19 130.07 45.0902 129.32 45.5902C128.58 46.1002 127.11 47.54 124.91 49.91C120.93 54.24 117.16 58.9501 113.6 64.0201C110.04 69.1001 106.98 74.16 104.43 79.2C103.78 80.45 103.11 81.8901 102.43 83.5201C101.75 85.1501 101.46 86.71 101.58 88.19C101.61 88.75 101.54 89.2701 101.39 89.7401C101.59 97.6701 100.89 106.98 105.38 112.91C110.84 117.18 118.55 111.68 126.39 107.92C133.92 103.82 143.31 98.3301 153.05 92.7601C153.12 92.7201 153.2 92.68 153.27 92.63C153.25 92.63 153.23 92.63 153.21 92.63L153.24 92.64Z" fill="url(#paint1_linear_1_902)"/>
<path fill-rule="evenodd" clip-rule="evenodd" d="M186.18 44.4199C184 43.1199 181.76 41.82 179.52 40.51C179.45 40.79 179.41 41.0701 179.33 41.3601C178.91 42.7301 178.38 44.0601 177.73 45.3701C177.08 46.6801 176.36 47.95 175.59 49.2C174.82 50.45 174.11 51.63 173.45 52.76C173.15 53.18 172.44 54.24 171.31 55.97C170.18 57.69 168.88 59.71 167.39 62.02C165.91 64.33 164.38 66.75 162.8 69.28C161.23 71.8 159.88 74.0999 158.75 76.1799C157.74 78.0199 157.16 79.3301 157.01 80.1001C156.86 80.8701 156.99 81.2701 157.41 81.3C157.82 81.33 158.43 81.08 159.24 80.54C160.05 80 160.92 79.3699 161.87 78.6299C162.82 77.8899 163.72 77.1201 164.59 76.3101C165.45 75.5101 166.15 74.8699 166.68 74.3999C168.22 72.9799 169.65 71.49 170.95 69.95C172.26 68.41 173.65 66.8899 175.14 65.4099C175.85 64.7599 176.49 64.4299 177.05 64.4299C177.61 64.4299 178.04 64.6699 178.34 65.1399C178.64 65.6199 178.74 66.2799 178.65 67.1399C178.56 67.9999 178.19 68.97 177.54 70.03C176.65 71.45 175.7 73.03 174.69 74.75C173.68 76.47 172.6 78.21 171.44 79.96C170.55 81.31 169.58 82.6101 168.58 83.8701C173.91 80.8101 178.98 77.89 183.44 75.27C194.9 68.5 202.06 63.6901 202.04 59.1101V58.95C202.04 54.74 196.06 50.3699 186.17 44.4199H186.18Z" fill="url(#paint2_linear_1_902)"/>
</g>
<defs>
<filter id="filter0_d_1_902" x="0.430054" y="0.569092" width="291.12" height="215.371" filterUnits="userSpaceOnUse" color-interpolation-filters="sRGB">
<feFlood flood-opacity="0" result="BackgroundImageFix"/>
<feColorMatrix in="SourceAlpha" type="matrix" values="0 0 0 0 0 0 0 0 0 0 0 0 0 0 0 0 0 0 127 0" result="hardAlpha"/>
<feOffset dx="7" dy="7"/>
<feGaussianBlur stdDeviation="5"/>
<feColorMatrix type="matrix" values="0 0 0 0 0.0156863 0 0 0 0 0 0 0 0 0 0 0 0 0 0.27 0"/>
<feBlend mode="normal" in2="BackgroundImageFix" result="effect1_dropShadow_1_902"/>
<feBlend mode="normal" in="SourceGraphic" in2="effect1_dropShadow_1_902" result="shape"/>
</filter>
<linearGradient id="paint0_linear_1_902" x1="101.24" y1="35.8199" x2="164.51" y2="35.8199" gradientUnits="userSpaceOnUse">
<stop stop-color="#78CBE8" stop-opacity="0.71"/>
<stop offset="1" stop-color="#17A196"/>
</linearGradient>
<linearGradient id="paint1_linear_1_902" x1="101.41" y1="79.87" x2="162.02" y2="79.87" gradientUnits="userSpaceOnUse">
<stop stop-color="#78CBE8" stop-opacity="0.71"/>
<stop offset="1" stop-color="#17A196"/>
</linearGradient>
<linearGradient id="paint2_linear_1_902" x1="156.96" y1="62.1901" x2="202.05" y2="62.1901" gradientUnits="userSpaceOnUse">
<stop stop-color="#78CBE8" stop-opacity="0.71"/>
<stop offset="1" stop-color="#17A196"/>
</linearGradient>
</defs>
</svg>
