<svg width="437" height="480" viewBox="0 0 437 480" fill="none" xmlns="http://www.w3.org/2000/svg">
<g opacity="0.15">
<path fill-rule="evenodd" clip-rule="evenodd" d="M25.91 212.29C40.01 193.58 55.53 176.13 72.45 159.98C78.09 154.59 84.88 148.38 92.84 141.32C100.78 134.27 109.19 128.24 118.04 123.24C126.88 118.24 135.93 115.04 145.15 113.62C154.38 112.22 163.23 114.2 171.69 119.58C178.62 124.2 183.23 129.71 185.54 136.12C187.85 142.53 188.74 149.33 188.23 156.51C187.71 163.69 186.17 170.81 183.61 177.86C181.05 184.91 178.35 191.39 175.53 197.28C168.35 212.16 160.4 226.07 151.68 239.02C142.96 251.97 135.14 265.37 128.22 279.22C134.88 270.76 140.91 263 146.3 255.95C151.69 248.9 156.75 242.36 161.49 236.33C166.24 230.31 170.72 224.67 174.96 219.4C179.19 214.15 183.48 208.95 187.85 203.82C197.59 191.26 207.33 179.53 217.08 168.62C226.83 157.73 236.7 148.24 246.7 140.16C255.6 132.97 264.67 127.23 273.87 122.79C252.92 110.8 231.59 98.6099 209.57 85.8799C170.67 63.6299 133.99 42.1701 104.36 26.3001C73.08 11.5201 38.66 -12.1599 16.91 9.10011C-2.81 39.5301 2.95 84.6999 0.740005 121.63C0.600005 159.88 0.519998 205.35 0.529998 250.24C8.31 237.17 16.72 224.48 25.91 212.28V212.29Z" fill="white"/>
<path fill-rule="evenodd" clip-rule="evenodd" d="M225.16 385.39C213.62 384.11 204.26 379.95 197.08 372.89C189.9 365.84 185.86 356.35 184.96 344.43C184.06 332.51 186.56 318.27 192.46 301.73C198.36 285.19 208.62 266.79 223.23 246.53C227.33 240.63 231.94 234.1 237.08 226.91C242.2 219.73 246.95 213.32 251.31 207.68C256.18 201.01 259.52 195.95 261.31 192.49C263.1 189.03 263.55 186.91 262.65 186.15C261.75 185.38 259.63 186.02 256.31 188.07C252.98 190.13 248.87 193.33 244 197.69C235.29 205.13 226.75 213.4 218.42 222.5C210.08 231.61 202 240.96 194.19 250.58C186.37 260.2 178.74 269.81 171.3 279.43C163.86 289.05 156.69 298.09 149.76 306.55C143.09 314.76 136.3 323.67 129.38 333.28C122.45 342.9 114.63 350.78 105.92 356.94C100.53 360.79 94.96 362.58 89.19 362.33C83.42 362.08 77.96 359.89 72.84 355.79C68.22 351.94 64.89 347.59 62.84 342.71C60.79 337.84 59.7 332.65 59.57 327.13C59.44 321.62 60.02 316.11 61.3 310.59C62.58 305.08 64.12 299.76 65.92 294.63C70.28 282.07 76.31 268.92 84 255.2C91.7 241.48 99.25 228.98 106.7 217.7C111.05 211.03 115.1 204.43 118.82 197.89C122.53 191.35 124.78 186.54 125.55 183.47C126.32 180.39 125.1 179.95 121.9 182.12C118.69 184.3 112.34 190.52 102.86 200.78C85.67 219.5 69.39 239.82 54.01 261.75C38.62 283.68 25.41 305.54 14.39 327.33C11.57 332.72 8.68001 338.94 5.74001 345.99C2.79001 353.05 1.57 359.78 2.09 366.18C2.22 368.61 1.93999 370.84 1.28999 372.88C2.13999 407.14 -0.890001 447.35 18.53 472.99C42.11 491.44 75.44 467.69 109.31 451.45C141.83 433.76 182.4 410.02 224.49 385.96C224.8 385.78 225.12 385.6 225.43 385.42C225.35 385.42 225.27 385.42 225.19 385.42L225.16 385.39Z" fill="white"/>
<path fill-rule="evenodd" clip-rule="evenodd" d="M367.47 177.06C358.05 171.46 348.38 165.82 338.69 160.17C338.4 161.39 338.23 162.61 337.86 163.83C336.06 169.73 333.76 175.5 330.93 181.14C328.11 186.78 325.03 192.29 321.7 197.68C318.36 203.07 315.29 208.2 312.47 213.07C311.18 214.87 308.1 219.48 303.24 226.92C298.37 234.36 292.72 243.08 286.32 253.08C279.91 263.08 273.3 273.53 266.51 284.43C259.71 295.33 253.88 305.27 249.01 314.24C244.65 322.19 242.15 327.83 241.51 331.17C240.87 334.5 241.44 336.24 243.24 336.36C245.03 336.49 247.66 335.4 251.12 333.09C254.58 330.78 258.36 328.03 262.47 324.82C266.57 321.61 270.48 318.28 274.2 314.82C277.91 311.36 280.93 308.61 283.24 306.55C289.9 300.39 296.06 293.99 301.7 287.32C307.34 280.65 313.37 274.12 319.78 267.7C322.86 264.88 325.61 263.47 328.05 263.47C330.49 263.47 332.34 264.5 333.63 266.55C334.91 268.61 335.36 271.49 334.98 275.2C334.6 278.92 332.99 283.09 330.17 287.7C326.32 293.86 322.22 300.65 317.86 308.09C313.49 315.53 308.82 323.03 303.82 330.59C299.95 336.44 295.79 342.03 291.46 347.49C314.47 334.29 336.38 321.66 355.67 310.35C405.19 281.1 436.09 260.32 436.01 240.55V239.85C436.01 221.66 410.2 202.8 367.46 177.07L367.47 177.06Z" fill="white"/>
</g>
</svg>
