<svg width="43" height="43" viewBox="0 0 43 43" fill="none" xmlns="http://www.w3.org/2000/svg">
<path d="M20.27 0.740001C36.87 -0.479999 48.34 17.17 40.27 31.86C31.95 47.02 9.66999 46.03 2.69999 30.21C-3.13001 16.98 5.92999 1.79 20.27 0.740001ZM13.56 7.88C12.48 8.06 9.33 9.85 8.73 10.77C8.13 11.69 8.51 13.47 8.69 14.59C10.19 23.76 16.16 32.41 24.27 36.9C26.53 38.15 26.86 38.35 29.07 36.85C29.91 36.28 31.99 34.65 31.95 33.6C31.92 32.95 31.09 32.29 30.63 31.84C29.59 30.83 27.75 29.1 26.62 28.27C24.94 27.03 22.89 28.87 22.04 28.49C21.89 28.42 20.3 26.79 20.07 26.52C18.85 25.13 17.57 23.21 16.72 21.56C16.45 21.05 15.68 19.61 15.63 19.13C15.56 18.41 17.15 17.06 17.41 16.26C17.56 15.82 17.57 15.4 17.49 14.95C17.11 12.97 15.51 10.43 15.03 8.37C14.69 7.82 14.15 7.78 13.56 7.87V7.88ZM31.01 13.01C30.33 12.26 28.19 10.39 27.29 10.1C26.51 9.85 25.92 10.43 26.18 11.21C26.32 11.62 27.89 12.43 28.37 12.81C30.17 14.24 31.77 16.59 32.45 18.79C32.67 19.49 32.83 21.49 33.5 21.68C35.31 22.21 34.22 18.89 33.98 18.13C33.4 16.32 32.28 14.42 31.01 13.01ZM28.56 22.25C29.32 21.48 27.82 18.49 27.26 17.71C26.74 16.99 23.44 13.56 23.24 15.96C23.19 16.59 24.26 17.02 24.66 17.39C25.52 18.18 26.24 18.94 26.66 20.05C27.08 21.14 26.9 23.03 28.55 22.24L28.56 22.25Z" fill="url(#paint0_linear_1_123)"/>
<defs>
<linearGradient id="paint0_linear_1_123" x1="0.909994" y1="21.68" x2="42.91" y2="21.68" gradientUnits="userSpaceOnUse">
<stop stop-color="#78CBE8" stop-opacity="0.71"/>
<stop offset="1" stop-color="#17A196"/>
</linearGradient>
</defs>
</svg>
